<?xml version="1.0" encoding="UTF-8" standalone="no"?>
<svg
   xmlns:dc="http://purl.org/dc/elements/1.1/"
   xmlns:cc="http://creativecommons.org/ns#"
   xmlns:rdf="http://www.w3.org/1999/02/22-rdf-syntax-ns#"
   xmlns:svg="http://www.w3.org/2000/svg"
   xmlns="http://www.w3.org/2000/svg"
   xmlns:sodipodi="http://sodipodi.sourceforge.net/DTD/sodipodi-0.dtd"
   xmlns:inkscape="http://www.inkscape.org/namespaces/inkscape"
   sodipodi:docname="Arduino Kassinn.svg"
   width="210mm"
   height="297mm"
   viewBox="0 0 210 297"
   version="1.1"
   id="svg8"
   inkscape:version="1.0.1 (3bc2e813f5, 2020-09-07)">
  <defs
     id="defs2" />
  <sodipodi:namedview
     id="base"
     pagecolor="#ffffff"
     bordercolor="#666666"
     borderopacity="1.0"
     inkscape:pageopacity="0.0"
     inkscape:pageshadow="2"
     inkscape:zoom="4"
     inkscape:cx="306.03621"
     inkscape:cy="271.93999"
     inkscape:document-units="mm"
     inkscape:current-layer="layer1"
     inkscape:document-rotation="0"
     showgrid="false"
     inkscape:window-width="1920"
     inkscape:window-height="1001"
     inkscape:window-x="-9"
     inkscape:window-y="-9"
     inkscape:window-maximized="1" />
  <metadata
     id="metadata5">
    <rdf:RDF>
      <cc:Work
         rdf:about="">
        <dc:format>image/svg+xml</dc:format>
        <dc:type
           rdf:resource="http://purl.org/dc/dcmitype/StillImage" />
        <dc:title />
      </cc:Work>
    </rdf:RDF>
    <rdf:RDF>
      <cc:Work
         rdf:about="">
        <dc:title />
      </cc:Work>
    </rdf:RDF>
  </metadata>
  <g
     inkscape:label="Layer 1"
     inkscape:groupmode="layer"
     id="layer1">
    <g
       id="panel5068"
       transform="translate(0.24578001,2.5719645)">
      <path
         style="fill:none;stroke:#000000;stroke-width:1"
         d="m 46.4,121 h 12.705 v -3.2 h 10.29 v 3.2 h 12.56 v -3.2 h 10.29 v 3.2 h 12.56 v -3.2 h 10.29 V 121 H 127.8"
         id="path4837" />
      <path
         style="fill:none;stroke:#000000;stroke-width:1"
         d="m 127.8,121 v 10.145 h -3.2 v 9.71 h 3.2 V 151"
         id="path4839" />
      <path
         style="fill:none;stroke:#000000;stroke-width:1"
         d="m 127.8,151 h -12.705 v 0 h -10.29 v 0 h -12.56 v 0 h -10.29 v 0 h -12.56 v 0 h -10.29 v 0 H 46.4"
         id="path4841" />
      <path
         style="fill:none;stroke:#000000;stroke-width:1"
         d="m 46.4,151 v -10.145 h 3.2 v -9.71 H 46.4 V 121"
         id="path4843" />
    </g>
    <g
       id="panel460">
      <path
         style="fill:none;stroke:#000000;stroke-width:1"
         d="M 46.4 46.4 L 59.395 46.4 L 59.395 49.6 L 69.105 49.6 L 69.105 46.4 L 82.245 46.4 L 82.245 49.6 L 91.955 49.6 L 91.955 46.4 L 105.095 46.4 L 105.095 49.6 L 114.805 49.6 L 114.805 46.4 L 127.8 46.4"
         id="path4855" />
      <path
         style="fill:none;stroke:#000000;stroke-width:1"
         d="M 127.8 46.4 L 127.8 62.0117 L 124.6 62.0117 L 124.6 71.7217 L 127.8 71.7217 L 127.8 87.4783 L 124.6 87.4783 L 124.6 97.1883 L 127.8 97.1883 L 127.8 112.8"
         id="path4857" />
      <path
         style="fill:none;stroke:#000000;stroke-width:1"
         d="M 127.8 112.8 L 114.805 112.8 L 114.805 109.6 L 105.095 109.6 L 105.095 112.8 L 91.955 112.8 L 91.955 109.6 L 82.245 109.6 L 82.245 112.8 L 69.105 112.8 L 69.105 109.6 L 59.395 109.6 L 59.395 112.8 L 46.4 112.8"
         id="path4859" />
      <path
         style="fill:none;stroke:#000000;stroke-width:1"
         d="M 46.4 112.8 L 46.4 97.1883 L 49.6 97.1883 L 49.6 87.4783 L 46.4 87.4783 L 46.4 71.7217 L 49.6 71.7217 L 49.6 62.0117 L 46.4 62.0117 L 46.4 46.4"
         id="path4861" />
    </g>
    <g
       id="panel4596"
       transform="translate(-0.00783676,1.460845)">
      <path
         style="fill:none;stroke:#000000;stroke-width:1"
         d="m 46.4,8.2 h 12.705 v 0 h 10.29 v 0 h 12.56 v 0 h 10.29 v 0 h 12.56 v 0 h 10.29 v 0 H 127.8"
         id="path4873" />
      <path
         style="fill:none;stroke:#000000;stroke-width:1"
         d="m 127.8,8.2 v 10.145 h -3.2 v 9.71 h 3.2 V 38.2"
         id="path4875" />
      <path
         style="fill:none;stroke:#000000;stroke-width:1"
         d="m 127.8,38.2 h -12.705 v 3.2 h -10.29 v -3.2 h -12.56 v 3.2 h -10.29 v -3.2 h -12.56 v 3.2 H 59.105 V 38.2 H 46.4"
         id="path4877" />
      <path
         style="fill:none;stroke:#000000;stroke-width:1"
         d="M 46.4,38.2 V 28.055 h 3.2 v -9.71 H 46.4 V 8.2"
         id="path4879" />
    </g>
    <g
       id="g5092"
       transform="translate(-137.10927,-39.374574)">
      <g
         id="g5109">
        <g
           id="g5100">
          <g
             id="g5074"
             transform="translate(5.8799296,80.715397)">
            <path
               style="fill:none;stroke:#000000;stroke-width:1"
               d="m 136,49.6 h 9.855 v -3.2 h 10.29 v 3.2 H 166"
               id="path5066" />
            <path
               style="fill:none;stroke:#000000;stroke-width:1"
               d="m 166,49.6 v 12.1217 0 10.29 0 15.1766 0 10.29 0 12.1217"
               id="path5068" />
            <path
               style="fill:none;stroke:#000000;stroke-width:1"
               d="m 166,109.6 h -9.855 v 3.2 h -10.29 v -3.2 H 136"
               id="path5070" />
            <path
               style="fill:none;stroke:#000000;stroke-width:1"
               d="M 136,109.6 V 97.4783 h -3.2 v -10.29 H 136 V 72.0117 h -3.2 v -10.29 H 136 V 49.6"
               id="path5072" />
          </g>
          <rect
             style="fill:none;fill-rule:evenodd;stroke:#000000;stroke-width:0.146186"
             id="rect5076"
             width="3.0538144"
             height="54.853817"
             x="166.42386"
             y="132.90517" />
        </g>
      </g>
    </g>
    <path
       id="rect5115"
       style="fill:none;stroke:#000000;stroke-width:0.2;stroke-miterlimit:4;stroke-dasharray:none"
       d="m 182.81032,14.441642 c 0,-2.73924 -2.20517,-4.94441 -4.94441,-4.94441 h -39.28856 c -2.73924,0 -4.9444,2.20517 -4.9444,4.94441 0,2.73925 2.20516,4.9444 4.9444,4.9444 h 0.39689 c -0.0105,0.1341 -0.0207,0.26824 -0.0207,0.40514 V 99.21941 c 0,2.81329 2.26497,5.07826 5.07824,5.07826 h 28.64738 c 2.81327,0 5.07773,-2.26497 5.07773,-5.07826 V 19.791182 c 0,-0.13689 -0.01,-0.27104 -0.0202,-0.40514 h 0.12919 c 2.73925,0 4.9444,-2.20515 4.9444,-4.9444 z" />
    <g
       id="g905"
       transform="translate(0.71625534,3.3510743)"
       style="opacity:1">
      <g
         id="g56"
         transform="translate(-137.58333,-44.871733)">
        <g
           id="panel193"
           transform="translate(6.4144687,5.61266)">
          <path
             style="fill:none;stroke:#000000;stroke-width:1"
             d="m 136,49.6 h 9.855 v -3.2 h 10.29 v 3.2 H 166"
             id="path4864" />
          <path
             style="fill:none;stroke:#000000;stroke-width:1"
             d="m 166,49.6 v 12.1217 0 10.29 0 15.1766 0 10.29 0 12.1217"
             id="path4866" />
          <path
             style="fill:none;stroke:#000000;stroke-width:1"
             d="m 166,109.6 h -9.855 v 3.2 h -10.29 v -3.2 H 136"
             id="path4868" />
          <path
             style="fill:none;stroke:#000000;stroke-width:1"
             d="M 136,109.6 V 97.4783 h -3.2 v -10.29 H 136 V 72.0117 h -3.2 v -10.29 H 136 V 49.6"
             id="path4870" />
        </g>
        <rect
           style="fill:none;fill-rule:evenodd;stroke:#000000;stroke-width:0.146186"
           id="rect5009"
           width="3.0538144"
           height="54.853817"
           x="166.9584"
           y="57.802425" />
      </g>
      <rect
         style="fill:none;stroke:#000000;stroke-width:0.200609;stroke-miterlimit:4;stroke-dasharray:none"
         id="rect883"
         width="12.663475"
         height="13.799391"
         x="8.0747623"
         y="21.892763" />
      <rect
         style="fill:none;stroke:#000000;stroke-width:0.2;stroke-miterlimit:4;stroke-dasharray:none"
         id="rect894"
         width="12.7051"
         height="10.018101"
         x="8.0539503"
         y="53.521999" />
    </g>
    <g
       id="g1084"
       style="stroke:#ff0000">
      <g
         id="g901"
         transform="matrix(0.33222272,0,0,0.33222272,54.814607,40.03402)"
         style="stroke-width:0.60200579;stroke-miterlimit:4;stroke-dasharray:none;stroke:#ff0000">
        <g
           aria-label="Finnur"
           transform="translate(9.5084636,6.9246419)"
           id="text1130"
           style="font-style:normal;font-variant:normal;font-weight:normal;font-stretch:normal;font-size:10.5833px;line-height:1.25;font-family:'Cooper Black';-inkscape-font-specification:'Cooper Black, Normal';font-variant-ligatures:normal;font-variant-caps:normal;font-variant-numeric:normal;font-variant-east-asian:normal;white-space:pre;shape-inside:url(#rect1132);fill:#000000;fill-opacity:1;stroke:#ff0000;stroke-width:0.60200579;stroke-miterlimit:4;stroke-dasharray:none" />
        <path
           id="path1164"
           style="fill:none;fill-rule:evenodd;stroke:#ff0000;stroke-width:0.60200579;stroke-miterlimit:4;stroke-dasharray:none"
           d="m 101.22065,87.428741 c 0.52915,0.715558 -0.70349,1.066317 -1.1893,0.879486 -1.316522,-0.506302 -1.274218,-2.283382 -0.569671,-3.258092 1.260271,-1.743526 3.831111,-1.584886 5.326881,-0.25985 2.19509,1.944543 1.9083,5.401122 -0.05,7.395669 -2.61006,2.658417 -6.979201,2.237355 -9.464456,-0.359785 -2.526318,-2.640053 -2.716851,-6.779359 -0.780672,-9.808439" />
        <path
           id="path1166"
           style="fill:none;fill-rule:evenodd;stroke:#ff0000;stroke-width:0.60200579;stroke-miterlimit:4;stroke-dasharray:none"
           d="m 120.04961,94.504593 c 1.19264,0.3258 0.14923,1.768403 -0.54151,1.982258 -1.87186,0.579534 -3.35369,-1.39591 -3.42301,-3.065262 -0.124,-2.986079 2.8176,-5.02348 5.58902,-4.863771 4.06718,0.234379 6.72632,4.252637 6.30453,8.112782 -0.56218,5.14497 -5.69163,8.44226 -10.63654,7.74528 -6.22266,-0.87707 -10.16477,-7.132325 -9.18604,-13.160298 0.4064,-2.503003 1.5964,-4.846711 3.34198,-6.681838" />
        <path
           id="path1168"
           style="fill:none;fill-rule:evenodd;stroke:#ff0000;stroke-width:0.60200579;stroke-miterlimit:4;stroke-dasharray:none"
           d="m 82.368107,91.470878 c 1.291025,-1.942756 4.070912,-1.953674 5.785976,-0.598358 2.442924,1.930502 2.388653,5.607667 0.438878,7.860167 -2.55498,2.951673 -7.150614,2.828813 -9.934358,0.279399 C 76.780066,97.291684 75.868932,94.70687 76.1281,92.186003" />
        <path
           id="path1982"
           style="opacity:1;fill:#000000;fill-opacity:0;stroke:#ff0000;stroke-width:0.60200579;stroke-miterlimit:4;stroke-dasharray:none"
           d="M 138.89458,96.107535 A 42.38728,41.802624 0 0 1 124.70585,143.81123 42.38728,41.802624 0 0 1 74.300451,144.40148 42.38728,41.802624 0 0 1 58.967189,97.043486" />
        <path
           id="path2000"
           style="fill:none;fill-rule:evenodd;stroke:#ff0000;stroke-width:0.60200579;stroke-miterlimit:4;stroke-dasharray:none"
           d="m 101.05589,126.2746 c -0.74183,3.31968 -4.84086,0.63784 -5.517531,-1.23298 -1.833737,-5.06979 3.404554,-9.39664 7.983481,-9.80209 8.19064,-0.72525 14.16874,7.09677 14.08665,14.73399 -0.12047,11.20794 -10.82141,19.03341 -21.4845,18.37121 C 83.582692,147.5659 74.134036,136.58772 73.396962,124.36707" />
      </g>
      <g
         aria-label="Finnur"
         id="text1015"
         style="font-style:normal;font-variant:normal;font-weight:normal;font-stretch:normal;font-size:4.23333px;line-height:1.25;font-family:'Eras Light ITC';-inkscape-font-specification:'Eras Light ITC, Normal';font-variant-ligatures:normal;font-variant-caps:normal;font-variant-numeric:normal;font-variant-east-asian:normal;fill:#000000;fill-opacity:1;stroke:#ff0000;stroke-width:0.265;stroke-miterlimit:4;stroke-dasharray:none">
        <path
           d="m 81.826294,77.509102 0.03721,-0.719335 0.04341,-1.384928 0.0083,-0.409277 q 0.0021,-0.150895 0.0021,-0.307991 0.432014,0.0021 0.824755,0.0021 l 0.719335,-0.0021 q -0.0083,0.08268 -0.0083,0.146761 -0.177767,-0.01447 -0.401009,-0.01654 -0.221175,-0.0021 -0.403076,-0.0021 h -0.570507 l -0.03721,1.188557 0.440283,0.0062 q 0.562239,0 0.83509,-0.0062 -0.0083,0.05994 -0.01033,0.142627 l -0.367936,-0.0041 q -0.217041,-0.0041 -0.343131,-0.0041 -0.26665,0 -0.562239,0.0083 -0.02481,0.886767 -0.02481,1.36219 -0.05168,-0.0021 -0.09095,-0.0021 -0.03927,0 -0.09095,0.0021 z"
           style="font-style:normal;font-variant:normal;font-weight:normal;font-stretch:normal;font-size:4.23333px;font-family:'Eras Light ITC';-inkscape-font-specification:'Eras Light ITC, Normal';font-variant-ligatures:normal;font-variant-caps:normal;font-variant-numeric:normal;font-variant-east-asian:normal;stroke:#ff0000;stroke-width:0.265;stroke-miterlimit:4;stroke-dasharray:none"
           id="path52" />
        <path
           d="m 83.976032,74.89221 0.0062,-0.204639 q 0.05168,0.0021 0.10542,0.0021 0.05374,0 0.10542,-0.0021 l -0.0062,0.204639 q -0.05168,-0.0041 -0.10542,-0.0041 -0.05374,0 -0.10542,0.0041 z m -0.07441,2.616892 q 0.02274,-0.310058 0.05168,-1.08107 0.03101,-0.771012 0.03101,-1.006656 0.05374,0.0021 0.08268,0.0021 0.03101,0 0.08475,-0.0021 -0.02894,0.39274 -0.05788,1.070735 -0.02687,0.677994 -0.02687,1.016991 -0.05374,-0.0021 -0.08268,-0.0021 -0.02894,0 -0.08268,0.0021 z"
           style="font-style:normal;font-variant:normal;font-weight:normal;font-stretch:normal;font-size:4.23333px;font-family:'Eras Light ITC';-inkscape-font-specification:'Eras Light ITC, Normal';font-variant-ligatures:normal;font-variant-caps:normal;font-variant-numeric:normal;font-variant-east-asian:normal;stroke:#ff0000;stroke-width:0.265;stroke-miterlimit:4;stroke-dasharray:none"
           id="path54" />
        <path
           d="m 84.662294,77.509102 0.07028,-1.262971 0.0186,-0.593245 q 0.0041,-0.159163 0.0041,-0.23151 0.05374,0.0021 0.08061,0.0021 0.02481,0 0.07855,-0.0021 l -0.02687,0.471288 q 0.04548,-0.09715 0.07441,-0.146761 0.03101,-0.05168 0.08268,-0.109553 0.05168,-0.05788 0.121956,-0.107487 0.07235,-0.05168 0.171566,-0.08475 0.101285,-0.03514 0.206705,-0.04961 0.10542,-0.01654 0.208773,-0.01654 0.173632,0 0.33693,0.03927 0.163297,0.03927 0.270784,0.136425 0.107487,0.09508 0.146761,0.221175 0.04134,0.124024 0.04134,0.26665 0,0.06408 -0.0062,0.19017 l -0.04341,0.94051 -0.0083,0.33693 q -0.04134,-0.0021 -0.08062,-0.0021 -0.03927,0 -0.07855,0.0021 0.02067,-0.258382 0.03307,-0.494026 l 0.02894,-0.529167 q 0.01654,-0.293522 0.01654,-0.423746 0,-0.136426 -0.03927,-0.243913 -0.03927,-0.107486 -0.136425,-0.177766 -0.09509,-0.07235 -0.227376,-0.103353 -0.132292,-0.03307 -0.272852,-0.03307 -0.19637,0 -0.347265,0.05374 -0.142627,0.05168 -0.250114,0.152963 -0.107487,0.09922 -0.1757,0.25218 -0.05168,0.111621 -0.07855,0.312126 -0.0248,0.173632 -0.04134,0.56844 -0.01447,0.392741 -0.01447,0.665592 -0.05374,-0.0021 -0.08268,-0.0021 -0.02894,0 -0.08268,0.0021 z"
           style="font-style:normal;font-variant:normal;font-weight:normal;font-stretch:normal;font-size:4.23333px;font-family:'Eras Light ITC';-inkscape-font-specification:'Eras Light ITC, Normal';font-variant-ligatures:normal;font-variant-caps:normal;font-variant-numeric:normal;font-variant-east-asian:normal;stroke:#ff0000;stroke-width:0.265;stroke-miterlimit:4;stroke-dasharray:none"
           id="path56" />
        <path
           d="m 87.074549,77.509102 0.07028,-1.262971 0.0186,-0.593245 q 0.0041,-0.159163 0.0041,-0.23151 0.05374,0.0021 0.08062,0.0021 0.02481,0 0.07855,-0.0021 l -0.02687,0.471288 q 0.04547,-0.09715 0.07441,-0.146761 0.031,-0.05168 0.08268,-0.109553 0.05168,-0.05788 0.121956,-0.107487 0.07235,-0.05168 0.171566,-0.08475 0.101285,-0.03514 0.206705,-0.04961 0.10542,-0.01654 0.208773,-0.01654 0.173633,0 0.33693,0.03927 0.163297,0.03927 0.270784,0.136425 0.107487,0.09508 0.146761,0.221175 0.04134,0.124024 0.04134,0.26665 0,0.06408 -0.0062,0.19017 l -0.04341,0.94051 -0.0083,0.33693 q -0.04134,-0.0021 -0.08061,-0.0021 -0.03928,0 -0.07855,0.0021 0.02067,-0.258382 0.03307,-0.494026 l 0.02894,-0.529167 q 0.01654,-0.293522 0.01654,-0.423746 0,-0.136426 -0.03928,-0.243913 -0.03927,-0.107486 -0.136425,-0.177766 -0.09508,-0.07235 -0.227376,-0.103353 -0.132292,-0.03307 -0.272852,-0.03307 -0.19637,0 -0.347265,0.05374 -0.142627,0.05168 -0.250114,0.152963 -0.107487,0.09922 -0.175699,0.25218 -0.05168,0.111621 -0.07855,0.312126 -0.0248,0.173632 -0.04134,0.56844 -0.01447,0.392741 -0.01447,0.665592 -0.05374,-0.0021 -0.08268,-0.0021 -0.02894,0 -0.08268,0.0021 z"
           style="font-style:normal;font-variant:normal;font-weight:normal;font-stretch:normal;font-size:4.23333px;font-family:'Eras Light ITC';-inkscape-font-specification:'Eras Light ITC, Normal';font-variant-ligatures:normal;font-variant-caps:normal;font-variant-numeric:normal;font-variant-east-asian:normal;stroke:#ff0000;stroke-width:0.265;stroke-miterlimit:4;stroke-dasharray:none"
           id="path58" />
        <path
           d="m 91.309945,77.509102 q -0.04134,-0.0021 -0.07648,-0.0021 -0.03514,0 -0.07648,0.0021 l 0.01654,-0.448551 q -0.04754,0.10542 -0.07855,0.152962 -0.02894,0.04547 -0.07648,0.09715 -0.04754,0.05168 -0.11989,0.09922 -0.07028,0.04548 -0.167431,0.07855 -0.09715,0.03307 -0.200505,0.04754 -0.101285,0.01447 -0.204638,0.01447 -0.177767,0 -0.332796,-0.03927 -0.152962,-0.03927 -0.272851,-0.136426 -0.117823,-0.09715 -0.161231,-0.225309 -0.04341,-0.130224 -0.04341,-0.293522 0,-0.12609 0.02687,-0.622183 0.02894,-0.498161 0.02894,-0.812353 0.05374,0.0021 0.08062,0.0021 0.02687,0 0.08061,-0.0021 -0.01654,0.177767 -0.04961,0.737939 -0.03101,0.560172 -0.03101,0.700731 0,0.157097 0.04134,0.266651 0.04134,0.109554 0.142627,0.1819 0.103353,0.07028 0.23151,0.09922 0.130224,0.02894 0.26665,0.02894 0.142627,0 0.272851,-0.03514 0.132292,-0.03721 0.219108,-0.09095 0.08682,-0.05374 0.152962,-0.132292 0.07648,-0.09095 0.130225,-0.21084 0.04754,-0.10542 0.07028,-0.260449 0.02274,-0.157096 0.03927,-0.566373 0.01447,-0.39274 0.01654,-0.719335 0.05581,0.0021 0.08268,0.0021 0.02687,0 0.08062,-0.0021 l -0.07648,1.446939 -0.0083,0.312125 q -0.0041,0.192236 -0.0041,0.328662 z"
           style="font-style:normal;font-variant:normal;font-weight:normal;font-stretch:normal;font-size:4.23333px;font-family:'Eras Light ITC';-inkscape-font-specification:'Eras Light ITC, Normal';font-variant-ligatures:normal;font-variant-caps:normal;font-variant-numeric:normal;font-variant-east-asian:normal;stroke:#ff0000;stroke-width:0.265;stroke-miterlimit:4;stroke-dasharray:none"
           id="path60" />
        <path
           d="m 91.894922,77.509102 q 0.02481,-0.436149 0.04754,-1.02526 0.02274,-0.589111 0.02274,-0.876431 l -0.0021,-0.186035 q 0.04134,0.0021 0.07648,0.0021 0.03721,0 0.07648,-0.0021 l -0.0186,0.390673 q 0.07028,-0.14056 0.130225,-0.212906 0.05994,-0.07235 0.138493,-0.11989 0.08061,-0.04961 0.186035,-0.07441 0.107487,-0.02687 0.223242,-0.02687 0.08475,0 0.171565,0.02067 0,0.07028 0.0083,0.14056 -0.138493,-0.03514 -0.239779,-0.03514 -0.09922,0 -0.179834,0.02687 -0.07855,0.02687 -0.148828,0.07855 -0.06821,0.05168 -0.134358,0.142627 -0.06615,0.08888 -0.09922,0.190169 -0.04134,0.117822 -0.05581,0.28732 -0.02274,0.264584 -0.02894,0.603581 -0.0083,0.456819 -0.0083,0.675927 -0.05374,-0.0021 -0.08268,-0.0021 -0.02894,0 -0.08268,0.0021 z"
           style="font-style:normal;font-variant:normal;font-weight:normal;font-stretch:normal;font-size:4.23333px;font-family:'Eras Light ITC';-inkscape-font-specification:'Eras Light ITC, Normal';font-variant-ligatures:normal;font-variant-caps:normal;font-variant-numeric:normal;font-variant-east-asian:normal;stroke:#ff0000;stroke-width:0.265;stroke-miterlimit:4;stroke-dasharray:none"
           id="path62" />
      </g>
    </g>
  </g>
</svg>
