<?xml version="1.0" encoding="UTF-8" standalone="no"?>
<svg
   xmlns:dc="http://purl.org/dc/elements/1.1/"
   xmlns:cc="http://creativecommons.org/ns#"
   xmlns:rdf="http://www.w3.org/1999/02/22-rdf-syntax-ns#"
   xmlns:svg="http://www.w3.org/2000/svg"
   xmlns="http://www.w3.org/2000/svg"
   xmlns:sodipodi="http://sodipodi.sourceforge.net/DTD/sodipodi-0.dtd"
   xmlns:inkscape="http://www.inkscape.org/namespaces/inkscape"
   width="210mm"
   height="297mm"
   viewBox="0 0 210 296.99999"
   version="1.1"
   id="svg8"
   inkscape:version="1.0.1 (3bc2e813f5, 2020-09-07)"
   sodipodi:docname="Logo.svg">
  <defs
     id="defs2">
    <rect
       x="53.787993"
       y="52.911014"
       width="97.344574"
       height="54.080319"
       id="rect1971" />
    <rect
       x="79.512685"
       y="64.31173"
       width="99.975508"
       height="46.187515"
       id="rect1953" />
    <rect
       x="30.986561"
       y="59.92684"
       width="138.56255"
       height="96.759921"
       id="rect1924" />
    <rect
       x="71.52018"
       y="95.498047"
       width="63.355307"
       height="37.930502"
       id="rect1132" />
    <rect
       x="85.989586"
       y="93.430992"
       width="2.0670574"
       height="23.151043"
       id="rect1126" />
    <rect
       x="80.615234"
       y="100.8724"
       width="37.620441"
       height="13.229167"
       id="rect837" />
  </defs>
  <sodipodi:namedview
     id="base"
     pagecolor="#ffffff"
     bordercolor="#666666"
     borderopacity="1.0"
     inkscape:pageopacity="0.0"
     inkscape:pageshadow="2"
     inkscape:zoom="1.2494834"
     inkscape:cx="304.47957"
     inkscape:cy="438.97883"
     inkscape:document-units="mm"
     inkscape:current-layer="layer1"
     inkscape:document-rotation="0"
     showgrid="false"
     showguides="false"
     inkscape:snap-others="true"
     scale-x="1"
     inkscape:window-width="1920"
     inkscape:window-height="1001"
     inkscape:window-x="-9"
     inkscape:window-y="-9"
     inkscape:window-maximized="1" />
  <metadata
     id="metadata5">
    <rdf:RDF>
      <cc:Work
         rdf:about="">
        <dc:format>image/svg+xml</dc:format>
        <dc:type
           rdf:resource="http://purl.org/dc/dcmitype/StillImage" />
        <dc:title></dc:title>
      </cc:Work>
    </rdf:RDF>
  </metadata>
  <g
     inkscape:label="Layer 1"
     inkscape:groupmode="layer"
     id="layer1">
    <text
       xml:space="preserve"
       id="text835"
       style="font-style:normal;font-variant:normal;font-weight:bold;font-stretch:normal;font-size:10.5833px;line-height:1.25;font-family:sans-serif;-inkscape-font-specification:'sans-serif, Bold';font-variant-ligatures:normal;font-variant-caps:normal;font-variant-numeric:normal;font-variant-east-asian:normal;white-space:pre;shape-inside:url(#rect837);fill:#000000;fill-opacity:1;stroke:none;"><tspan
         style="visibility:hidden"
         x="80.615234"
         y="123.75703"><tspan
           dx="0 6.8832788 3.6173391 7.539566 7.5395679 7.5395679"
           style="font-style:normal;font-variant:normal;font-weight:bold;font-stretch:normal;font-size:10.5833px;font-family:sans-serif;-inkscape-font-specification:'sans-serif, Bold';font-variant-ligatures:normal;font-variant-caps:normal;font-variant-numeric:normal;font-variant-east-asian:normal">Finnur</tspan></tspan></text>
    <text
       xml:space="preserve"
       id="text1124"
       style="font-style:normal;font-weight:normal;font-size:10.5833px;line-height:1.25;font-family:sans-serif;white-space:pre;shape-inside:url(#rect1126);fill:#000000;fill-opacity:1;stroke:none;" />
    <g
       id="g901">
      <g
         aria-label="Finnur"
         transform="translate(9.5084636,6.9246419)"
         id="text1130"
         style="font-style:normal;font-variant:normal;font-weight:normal;font-stretch:normal;font-size:10.5833px;line-height:1.25;font-family:'Cooper Black';-inkscape-font-specification:'Cooper Black, Normal';font-variant-ligatures:normal;font-variant-caps:normal;font-variant-numeric:normal;font-variant-east-asian:normal;white-space:pre;shape-inside:url(#rect1132);fill:#000000;fill-opacity:1;stroke:none">
        <path
           d="m 75.514107,99.054503 q -0.356566,0 -0.439249,0.180867 -0.06201,0.134359 -0.118855,0.527098 -0.05168,0.392742 -0.05168,0.713132 0,0.1912 0.124023,0.26355 0.124023,0.0724 0.465086,0.0724 0.227376,0 0.335896,-0.0827 0.10852,-0.0827 0.149861,-0.27905 0.118856,-0.563269 0.485757,-0.563269 0.630451,0 0.630451,1.508949 0,0.95601 -0.273885,1.40559 -0.165364,0.27389 -0.454751,0.27389 -0.30489,0 -0.351398,-0.40825 -0.02584,-0.26354 -0.06718,-0.37206 -0.03617,-0.10852 -0.144693,-0.20671 -0.170532,-0.1602 -0.496092,-0.1602 -0.232544,0 -0.315226,0.0827 -0.08268,0.0827 -0.07235,0.31522 0,0.0413 -0.0052,0.48059 0,0.894 0.186035,1.09037 0.06201,0.0775 0.124023,0.10335 0.06718,0.0207 0.341063,0.062 0.134358,0.0207 0.227376,0.13953 0.09302,0.11886 0.09302,0.27388 0,0.39791 -0.465087,0.5116 -0.671791,0.1602 -1.886183,0.1602 -1.064531,0 -1.467606,-0.12403 -0.180867,-0.0568 -0.294555,-0.2067 -0.113688,-0.14986 -0.113688,-0.33073 0,-0.22738 0.165364,-0.3669 0.04134,-0.031 0.28422,-0.12919 0.289387,-0.11369 0.346231,-0.5271 0.09302,-0.63562 0.09302,-2.89904 0,-0.976681 -0.06718,-1.266068 -0.06718,-0.289387 -0.325561,-0.403075 -0.258381,-0.113688 -0.341063,-0.19637 -0.07751,-0.08785 -0.07751,-0.248046 0,-0.227376 0.222208,-0.377237 0.222207,-0.155029 0.547768,-0.155029 0.206705,0 0.604612,0.03101 0.842323,0.06718 2.015375,0.06718 1.875848,0 2.526969,-0.103352 0.08785,-0.01033 0.134359,-0.01033 0.180866,0 0.346231,0.206705 0.454751,0.578774 0.454751,1.281571 0,0.320393 -0.149861,0.511595 -0.149862,0.191206 -0.39274,0.191206 -0.180867,0 -0.273884,-0.0724 -0.09302,-0.07235 -0.475422,-0.506428 -0.232543,-0.268716 -0.563271,-0.351399 -0.325561,-0.08268 -1.21956,-0.10852 z"
           style="font-style:normal;font-variant:normal;font-weight:normal;font-stretch:normal;font-size:10.5833px;font-family:'Cooper Black';-inkscape-font-specification:'Cooper Black, Normal';font-variant-ligatures:normal;font-variant-caps:normal;font-variant-numeric:normal;font-variant-east-asian:normal"
           id="path871" />
        <path
           d="m 81.699756,100.25339 v 3.00239 q 0,0.35657 0.06201,0.52193 0.06718,0.16537 0.263549,0.30489 0.160197,0.11369 0.211873,0.19637 0.05684,0.0775 0.05684,0.20154 0,0.66663 -1.689814,0.66663 -0.909502,0 -1.441768,-0.1447 -0.180867,-0.0517 -0.294555,-0.18087 -0.10852,-0.12919 -0.10852,-0.29455 0,-0.13953 0.05684,-0.21704 0.05684,-0.0775 0.289387,-0.24805 0.160197,-0.11885 0.227376,-0.38757 0.06718,-0.26871 0.06718,-0.80098 0,-0.17053 -0.02584,-0.63562 -0.02067,-0.47025 -0.03101,-0.54777 -0.03101,-0.21187 -0.289387,-0.32556 -0.320393,-0.13952 -0.320393,-0.41341 0,-0.32556 0.418578,-0.48575 0.578774,-0.22221 1.24023,-0.37724 0.661457,-0.15503 1.02319,-0.15503 0.28422,0 0.28422,0.32039 z m -1.02319,-2.263418 q 0.449583,0 0.713132,0.170532 0.263549,0.165364 0.263549,0.449583 0,0.397908 -0.397907,0.630451 -0.63045,0.366901 -1.52445,0.366901 -0.377237,0 -0.599445,-0.144693 -0.299722,-0.186035 -0.299722,-0.516763 0,-0.444416 0.635618,-0.697629 0.645953,-0.258382 1.209225,-0.258382 z"
           style="font-style:normal;font-variant:normal;font-weight:normal;font-stretch:normal;font-size:10.5833px;font-family:'Cooper Black';-inkscape-font-specification:'Cooper Black, Normal';font-variant-ligatures:normal;font-variant-caps:normal;font-variant-numeric:normal;font-variant-east-asian:normal"
           id="path873" />
        <path
           d="m 88.867255,101.80368 0.07235,1.81901 q 0.01034,0.2067 0.06201,0.30489 0.05684,0.0982 0.320393,0.37723 0.07751,0.0827 0.07751,0.23255 0,0.34106 -0.408242,0.47542 -0.408243,0.13436 -1.457271,0.13436 -0.713133,0 -1.007687,-0.12403 -0.30489,-0.12919 -0.30489,-0.41858 0,-0.10335 0.03101,-0.14986 0.031,-0.0517 0.206705,-0.24288 0.206705,-0.21704 0.206705,-1.44693 0,-0.71313 -0.165364,-1.0542 -0.134359,-0.27388 -0.496093,-0.27388 -0.346231,0 -0.475421,0.22221 -0.129191,0.22221 -0.129191,0.80615 v 1.02319 q 0,0.30489 0.03617,0.41857 0.04134,0.11369 0.258382,0.43925 0.05684,0.093 0.05684,0.21188 0,0.30489 -0.423746,0.44958 -0.423745,0.14469 -1.322912,0.14469 -1.4366,0 -1.4366,-0.59427 0,-0.12403 0.04134,-0.18604 0.04651,-0.0672 0.211872,-0.18603 0.134359,-0.0982 0.170532,-0.22221 0.03617,-0.12919 0.06718,-0.62528 0.03617,-0.58911 0.03617,-1.23507 0,-0.35656 -0.05684,-0.46508 -0.05168,-0.11369 -0.310058,-0.27389 -0.222208,-0.13952 -0.222208,-0.34106 0,-0.20671 0.180867,-0.3359 0.180867,-0.13435 0.744138,-0.33589 0.496092,-0.1757 0.956011,-0.29456 0.459919,-0.12402 0.630451,-0.12402 0.155029,0 0.258381,0.11369 0.10852,0.11369 0.10852,0.26871 0,0.0155 -0.0052,0.12919 -0.0052,0.0413 -0.0052,0.0724 0,0.24805 0.206705,0.24805 0.124023,0 0.263549,-0.19637 0.444416,-0.640788 1.291907,-0.640788 0.651121,0 1.116207,0.341068 0.325561,0.24287 0.454751,0.5736 0.129191,0.32556 0.160197,0.96118 z"
           style="font-style:normal;font-variant:normal;font-weight:normal;font-stretch:normal;font-size:10.5833px;font-family:'Cooper Black';-inkscape-font-specification:'Cooper Black, Normal';font-variant-ligatures:normal;font-variant-caps:normal;font-variant-numeric:normal;font-variant-east-asian:normal"
           id="path875" />
        <path
           d="m 95.967574,101.80368 0.07235,1.81901 q 0.01034,0.2067 0.06201,0.30489 0.05684,0.0982 0.320393,0.37723 0.07751,0.0827 0.07751,0.23255 0,0.34106 -0.408242,0.47542 -0.408243,0.13436 -1.457271,0.13436 -0.713133,0 -1.007687,-0.12403 -0.30489,-0.12919 -0.30489,-0.41858 0,-0.10335 0.03101,-0.14986 0.03101,-0.0517 0.206705,-0.24288 0.206706,-0.21704 0.206706,-1.44693 0,-0.71313 -0.165364,-1.0542 -0.134359,-0.27388 -0.496093,-0.27388 -0.346231,0 -0.475421,0.22221 -0.129191,0.22221 -0.129191,0.80615 v 1.02319 q 0,0.30489 0.03617,0.41857 0.04134,0.11369 0.258382,0.43925 0.05684,0.093 0.05684,0.21188 0,0.30489 -0.423746,0.44958 -0.423745,0.14469 -1.322912,0.14469 -1.4366,0 -1.4366,-0.59427 0,-0.12403 0.04134,-0.18604 0.04651,-0.0672 0.211872,-0.18603 0.134359,-0.0982 0.170532,-0.22221 0.03617,-0.12919 0.06718,-0.62528 0.03617,-0.58911 0.03617,-1.23507 0,-0.35656 -0.05684,-0.46508 -0.05168,-0.11369 -0.310058,-0.27389 -0.222208,-0.13952 -0.222208,-0.34106 0,-0.20671 0.180867,-0.3359 0.180867,-0.13435 0.744138,-0.33589 0.496092,-0.1757 0.956011,-0.29456 0.459919,-0.12402 0.630451,-0.12402 0.155028,0 0.258381,0.11369 0.10852,0.11369 0.10852,0.26871 0,0.0155 -0.0052,0.12919 -0.0052,0.0413 -0.0052,0.0724 0,0.24805 0.206705,0.24805 0.124023,0 0.263549,-0.19637 0.444416,-0.640788 1.291907,-0.640788 0.651121,0 1.116207,0.341068 0.32556,0.24287 0.454751,0.5736 0.129191,0.32556 0.160197,0.96118 z"
           style="font-style:normal;font-variant:normal;font-weight:normal;font-stretch:normal;font-size:10.5833px;font-family:'Cooper Black';-inkscape-font-specification:'Cooper Black, Normal';font-variant-ligatures:normal;font-variant-caps:normal;font-variant-numeric:normal;font-variant-east-asian:normal"
           id="path877" />
        <path
           d="m 99.631421,100.19138 v 2.80085 q 0,0.89917 0.594279,0.89917 0.14986,0 0.29455,-0.0827 0.1447,-0.0878 0.20154,-0.21187 0.11369,-0.24805 0.11369,-1.10587 0,-0.8475 -0.0568,-1.15755 -0.0207,-0.12919 -0.0723,-0.18604 -0.0517,-0.062 -0.19637,-0.13952 -0.29456,-0.15503 -0.29456,-0.39274 0,-0.3204 0.50643,-0.44442 0.96118,-0.23771 1.89652,-0.23771 0.52193,0 0.52193,0.55294 0,0.0568 -0.005,0.23254 -0.0103,0.24805 -0.0155,0.60461 v 2.27892 q 0,0.1757 0.29972,0.3204 0.25321,0.12402 0.25321,0.36173 0,0.46509 -1.1007,0.7183 -0.64595,0.14986 -1.25057,0.14986 -0.24804,0 -0.34106,-0.0568 -0.0879,-0.0568 -0.10335,-0.22221 -0.0258,-0.32039 -0.19637,-0.32039 -0.062,0 -0.11369,0.031 -0.0517,0.0258 -0.31522,0.20671 -0.521934,0.35657 -1.121379,0.35657 -0.992184,0 -1.400427,-0.57361 -0.346231,-0.48059 -0.346231,-1.61747 0,-0.42374 0.0052,-0.72347 0,-0.1757 0,-0.23771 0,-0.44441 -0.08268,-0.65112 -0.07751,-0.21187 -0.289387,-0.33073 -0.201538,-0.10335 -0.258382,-0.16536 -0.05168,-0.062 -0.05168,-0.17053 0,-0.39274 0.594277,-0.52193 1.012855,-0.22221 2.02571,-0.22221 0.30489,0 0.30489,0.25838 z"
           style="font-style:normal;font-variant:normal;font-weight:normal;font-stretch:normal;font-size:10.5833px;font-family:'Cooper Black';-inkscape-font-specification:'Cooper Black, Normal';font-variant-ligatures:normal;font-variant-caps:normal;font-variant-numeric:normal;font-variant-east-asian:normal"
           id="path879" />
        <path
           d="m 106.38551,99.927832 q 0.27389,0 0.33073,0.07752 0.062,0.0775 0.10852,0.49609 0.0258,0.22737 0.1602,0.22737 0.10335,0 0.19637,-0.14986 0.41341,-0.64595 1.08003,-0.64595 0.47025,0 0.76998,0.30489 0.14469,0.14986 0.23771,0.38757 0.093,0.23255 0.093,0.44959 0,0.24287 -0.11368,0.50126 -0.11369,0.25321 -0.29456,0.41857 -0.33073,0.31523 -0.81132,0.31523 -0.26354,0 -0.44441,-0.093 -0.1757,-0.093 -0.46509,-0.37724 -0.10852,-0.10852 -0.20154,-0.10852 -0.14469,0 -0.1912,0.16537 -0.0413,0.16019 -0.0413,0.68212 0,0.78032 0.0569,1.06454 0.0362,0.15502 0.0982,0.21704 0.0672,0.0568 0.27905,0.11885 0.46509,0.13953 0.46509,0.48576 0,0.21187 -0.14986,0.37207 -0.14986,0.15503 -0.39791,0.2067 -0.49609,0.10336 -1.45727,0.10336 -0.91467,0 -1.39009,-0.1602 -0.42375,-0.14469 -0.42375,-0.50126 0,-0.26872 0.31006,-0.48059 0.14986,-0.0982 0.20671,-0.1757 0.0568,-0.0827 0.0775,-0.22221 0.0827,-0.47025 0.0827,-1.74149 0,-0.23254 -0.0517,-0.33073 -0.0517,-0.10335 -0.20671,-0.16536 -0.3669,-0.14469 -0.3669,-0.41858 0,-0.24804 0.25321,-0.42374 0.25322,-0.18087 0.84749,-0.35657 0.79582,-0.23771 1.35392,-0.242878 z"
           style="font-style:normal;font-variant:normal;font-weight:normal;font-stretch:normal;font-size:10.5833px;font-family:'Cooper Black';-inkscape-font-specification:'Cooper Black, Normal';font-variant-ligatures:normal;font-variant-caps:normal;font-variant-numeric:normal;font-variant-east-asian:normal"
           id="path881" />
      </g>
      <path
         id="path1164"
         style="fill:none;fill-rule:evenodd;stroke:#000000;stroke-width:0.264583"
         d="m 101.22065,87.428741 c 0.52915,0.715558 -0.70349,1.066317 -1.1893,0.879486 -1.316522,-0.506302 -1.274218,-2.283382 -0.569671,-3.258092 1.260271,-1.743526 3.831111,-1.584886 5.326881,-0.25985 2.19509,1.944543 1.9083,5.401122 -0.05,7.395669 -2.61006,2.658417 -6.979201,2.237355 -9.464456,-0.359785 -2.526318,-2.640053 -2.716851,-6.779359 -0.780672,-9.808439" />
      <path
         id="path1166"
         style="fill:none;fill-rule:evenodd;stroke:#000000;stroke-width:0.264583"
         d="m 120.04961,94.504593 c 1.19264,0.3258 0.14923,1.768403 -0.54151,1.982258 -1.87186,0.579534 -3.35369,-1.39591 -3.42301,-3.065262 -0.124,-2.986079 2.8176,-5.02348 5.58902,-4.863771 4.06718,0.234379 6.72632,4.252637 6.30453,8.112782 -0.56218,5.14497 -5.69163,8.44226 -10.63654,7.74528 -6.22266,-0.87707 -10.16477,-7.132325 -9.18604,-13.160298 0.4064,-2.503003 1.5964,-4.846711 3.34198,-6.681838" />
      <path
         id="path1168"
         style="fill:none;fill-rule:evenodd;stroke:#000000;stroke-width:0.264583"
         d="m 82.368107,91.470878 c 1.291025,-1.942756 4.070912,-1.953674 5.785976,-0.598358 2.442924,1.930502 2.388653,5.607667 0.438878,7.860167 -2.55498,2.951673 -7.150614,2.828813 -9.934358,0.279399 C 76.780066,97.291684 75.868932,94.70687 76.1281,92.186003" />
      <path
         id="path1982"
         style="opacity:1;fill:#000000;fill-opacity:0;stroke:#000000;stroke-width:0.499999;stroke-miterlimit:4;stroke-dasharray:none"
         d="M 138.89458,96.107535 A 42.38728,41.802624 0 0 1 124.70585,143.81123 42.38728,41.802624 0 0 1 74.300451,144.40148 42.38728,41.802624 0 0 1 58.967189,97.043486" />
      <path
         id="path2000"
         style="fill:none;fill-rule:evenodd;stroke:#000000;stroke-width:0.264583"
         d="m 101.05589,126.2746 c -0.74183,3.31968 -4.84086,0.63784 -5.517531,-1.23298 -1.833737,-5.06979 3.404554,-9.39664 7.983481,-9.80209 8.19064,-0.72525 14.16874,7.09677 14.08665,14.73399 -0.12047,11.20794 -10.82141,19.03341 -21.4845,18.37121 C 83.582692,147.5659 74.134036,136.58772 73.396962,124.36707" />
    </g>
  </g>
</svg>
