<?xml version="1.0" encoding="UTF-8" standalone="no"?>
<svg
   xmlns:dc="http://purl.org/dc/elements/1.1/"
   xmlns:cc="http://creativecommons.org/ns#"
   xmlns:rdf="http://www.w3.org/1999/02/22-rdf-syntax-ns#"
   xmlns:svg="http://www.w3.org/2000/svg"
   xmlns="http://www.w3.org/2000/svg"
   xmlns:sodipodi="http://sodipodi.sourceforge.net/DTD/sodipodi-0.dtd"
   xmlns:inkscape="http://www.inkscape.org/namespaces/inkscape"
   width="210mm"
   height="297mm"
   viewBox="0 0 210 297"
   version="1.1"
   id="svg8"
   inkscape:version="1.0.1 (3bc2e813f5, 2020-09-07)"
   sodipodi:docname="Nafnspjald.svg">
  <defs
     id="defs2">
    <rect
       x="3.0842695"
       y="5.411375"
       width="83.821534"
       height="28.638279"
       id="rect2948" />
    <rect
       x="3.0842695"
       y="5.411375"
       width="37.300204"
       height="18.542161"
       id="rect2942" />
  </defs>
  <sodipodi:namedview
     id="base"
     pagecolor="#ffffff"
     bordercolor="#666666"
     borderopacity="1.0"
     inkscape:pageopacity="0.0"
     inkscape:pageshadow="2"
     inkscape:zoom="1.8901367"
     inkscape:cx="88.459925"
     inkscape:cy="151.10705"
     inkscape:document-units="mm"
     inkscape:current-layer="text2954"
     inkscape:document-rotation="0"
     showgrid="false"
     inkscape:window-width="1920"
     inkscape:window-height="1001"
     inkscape:window-x="-9"
     inkscape:window-y="-9"
     inkscape:window-maximized="1" />
  <metadata
     id="metadata5">
    <rdf:RDF>
      <cc:Work
         rdf:about="">
        <dc:format>image/svg+xml</dc:format>
        <dc:type
           rdf:resource="http://purl.org/dc/dcmitype/StillImage" />
        <dc:title></dc:title>
      </cc:Work>
    </rdf:RDF>
  </metadata>
  <g
     inkscape:label="Layer 1"
     inkscape:groupmode="layer"
     id="layer1">
    <rect
       style="fill:none;fill-opacity:0;stroke:#000000;stroke-width:0.2;stroke-miterlimit:4;stroke-dasharray:none;stroke-opacity:1"
       id="rect833"
       width="84.800003"
       height="54.799999"
       x="3.0842695"
       y="5.411375"
       ry="2.1325505" />
    <text
       xml:space="preserve"
       id="text2940"
       style="fill:black;fill-opacity:1;line-height:1.25;stroke:none;font-family:sans-serif;font-style:normal;font-weight:normal;font-size:10.58333333px;white-space:pre;shape-inside:url(#rect2942);" />
    <text
       xml:space="preserve"
       id="text2946"
       style="fill:black;fill-opacity:1;line-height:1.25;stroke:none;font-family:sans-serif;font-style:normal;font-weight:normal;font-size:10.58333333px;white-space:pre;shape-inside:url(#rect2948);" />
    <g
       id="g3053"
       transform="translate(-1.3308046)"
       style="fill:#ffcc00">
      <g
         aria-label="Finnur „Ríki” Kindaeysta"
         id="text2954"
         style="font-style:normal;font-variant:normal;font-weight:normal;font-stretch:normal;font-size:10.5833px;line-height:1.25;font-family:'Old English Text MT';-inkscape-font-specification:'Old English Text MT, Normal';font-variant-ligatures:normal;font-variant-caps:normal;font-variant-numeric:normal;font-variant-east-asian:normal;fill:#ffcc00;fill-opacity:1;stroke:none;stroke-width:0.264583">
        <path
           d="m 13.408418,14.645889 h 0.151584 q -0.01378,0.303169 -0.09302,0.461643 -0.110243,0.210151 -0.327284,0.334175 -0.217041,0.124023 -0.478868,0.124023 -0.279053,0 -0.664904,-0.151584 v 0.912951 h 1.078315 l -0.19637,0.51332 h -0.881945 v 1.636421 q 0,0.485759 -0.0689,0.70969 -0.06546,0.220486 -0.261828,0.423747 -0.19637,0.203261 -0.492649,0.341065 -0.423747,0.199815 -0.682129,0.285943 l -1.4434959,0.482314 q -0.6821293,-0.251493 -0.7923725,-0.251493 -0.096463,0 -0.1722548,0.06546 -0.075792,0.0689 -0.1067981,0.220487 l -0.1446941,-0.03445 q 0,-0.237712 0.058567,-0.375516 0.093018,-0.220486 0.2618274,-0.334175 0.1688098,-0.113688 0.3617353,-0.113688 0.2721627,0 0.7027999,0.186036 0.3031686,0.134358 0.3686255,0.155029 0.068902,0.02067 0.1309137,0.02067 0.106798,0 0.1963705,-0.08957 0.089572,-0.08613 0.1136881,-0.268718 0.02756,-0.179145 0.02756,-0.751031 v -2.308215 l -0.2135961,-0.0034 q -0.5305451,0 -0.7889274,0.124024 -0.2549372,0.120578 -0.4409725,0.409967 L 8.4750379,17.31584 q 0.1378039,-0.454753 0.3617353,-0.654568 0.3789607,-0.33762 1.0507548,-0.33762 0.055122,0 0.165365,0.0034 v -0.733806 l 0.237711,0.01034 q 0.385851,0 0.761367,-0.15503 0.375516,-0.158474 0.630453,-0.375516 0.16881,-0.148139 0.35829,-0.427192 0.564996,0.361736 0.926731,0.361736 0.158475,0 0.268718,-0.08268 0.110243,-0.08613 0.172255,-0.279053 z m -2.118735,0.909506 q -0.230822,0.124024 -0.5271,0.189481 v 2.776748 q 0,0.144694 -0.02756,0.544326 -0.01723,0.234266 -0.05512,0.354845 -0.05857,0.179145 -0.172254,0.341064 -0.113689,0.158475 -0.385851,0.413412 0.451307,-0.165365 0.720025,-0.406521 0.268718,-0.244602 0.35829,-0.523655 0.08957,-0.282498 0.08957,-0.844049 z"
           style="font-style:normal;font-variant:normal;font-weight:normal;font-stretch:normal;font-size:7.05556px;font-family:'Old English Text MT';-inkscape-font-specification:'Old English Text MT, Normal';font-variant-ligatures:normal;font-variant-caps:normal;font-variant-numeric:normal;font-variant-east-asian:normal;stroke-width:0.264583;fill:#ffcc00"
           id="path2985" />
        <path
           d="m 14.858804,14.945613 h 0.437527 l -0.475423,0.744141 h -0.137804 z m -0.261828,1.178223 0.613228,0.50643 -0.272163,0.265272 v 1.874133 q 0,0.296279 0.05512,0.385851 0.05512,0.08957 0.113688,0.08957 0.04134,0 0.07579,-0.01723 0.04823,-0.02411 0.199816,-0.137804 l 0.08268,0.106798 -0.782037,0.599447 q -0.275608,-0.19637 -0.354845,-0.368625 -0.07924,-0.1757 -0.07924,-0.609782 V 16.895531 L 13.99063,16.630259 Z"
           style="font-style:normal;font-variant:normal;font-weight:normal;font-stretch:normal;font-size:7.05556px;font-family:'Old English Text MT';-inkscape-font-specification:'Old English Text MT, Normal';font-variant-ligatures:normal;font-variant-caps:normal;font-variant-numeric:normal;font-variant-east-asian:normal;stroke-width:0.264583;fill:#ffcc00"
           id="path2987" />
        <path
           d="m 18.035184,16.123836 0.564996,0.5271 0.334175,-0.323839 0.09646,0.09302 q -0.241157,0.220486 -0.292833,0.334174 -0.0689,0.151584 -0.0689,0.416857 v 1.636421 q 0,0.227377 0.07235,0.33762 0.04479,0.07235 0.09991,0.07235 0.04823,0 0.227376,-0.134359 l 0.08268,0.106798 -0.740696,0.606337 Q 18.124759,19.579274 18.042076,19.41391 17.962836,19.2451 17.962836,18.873029 V 16.97478 l -0.375516,-0.323839 -0.558105,0.444418 v 1.96026 l 0.248047,0.248047 -0.609783,0.492649 -0.613227,-0.492649 0.268718,-0.248047 v -1.760445 q 0,-0.375515 -0.07579,-0.506429 -0.05168,-0.08957 -0.117133,-0.08957 -0.0689,0 -0.206706,0.106798 l -0.08268,-0.09646 0.733806,-0.585667 q 0.303168,0.213596 0.37896,0.33762 0.07579,0.124023 0.07579,0.34451 v 0.117133 z"
           style="font-style:normal;font-variant:normal;font-weight:normal;font-stretch:normal;font-size:7.05556px;font-family:'Old English Text MT';-inkscape-font-specification:'Old English Text MT, Normal';font-variant-ligatures:normal;font-variant-caps:normal;font-variant-numeric:normal;font-variant-east-asian:normal;stroke-width:0.264583;fill:#ffcc00"
           id="path2989" />
        <path
           d="m 21.631866,16.123836 0.564996,0.5271 0.334174,-0.323839 0.09646,0.09302 q -0.241157,0.220486 -0.292833,0.334174 -0.0689,0.151584 -0.0689,0.416857 v 1.636421 q 0,0.227377 0.07235,0.33762 0.04479,0.07235 0.09991,0.07235 0.04823,0 0.227376,-0.134359 l 0.08268,0.106798 -0.740696,0.606337 Q 21.72144,19.579274 21.638758,19.41391 21.559518,19.2451 21.559518,18.873029 V 16.97478 l -0.375516,-0.323839 -0.558106,0.444418 v 1.96026 l 0.248047,0.248047 -0.609782,0.492649 -0.613227,-0.492649 0.268717,-0.248047 v -1.760445 q 0,-0.375515 -0.07579,-0.506429 -0.05168,-0.08957 -0.117133,-0.08957 -0.0689,0 -0.206706,0.106798 l -0.08268,-0.09646 0.733806,-0.585667 q 0.303169,0.213596 0.378961,0.33762 0.07579,0.124023 0.07579,0.34451 v 0.117133 z"
           style="font-style:normal;font-variant:normal;font-weight:normal;font-stretch:normal;font-size:7.05556px;font-family:'Old English Text MT';-inkscape-font-specification:'Old English Text MT, Normal';font-variant-ligatures:normal;font-variant-caps:normal;font-variant-numeric:normal;font-variant-east-asian:normal;stroke-width:0.264583;fill:#ffcc00"
           id="path2991" />
        <path
           d="m 25.507601,16.123836 0.616673,0.509875 -0.279053,0.254937 v 1.808676 q 0,0.313504 0.08613,0.447863 0.05512,0.09302 0.120579,0.09302 0.04823,0 0.186035,-0.113689 l 0.08957,0.110243 -0.726915,0.561551 q -0.275608,-0.192925 -0.361735,-0.344509 -0.08268,-0.15503 -0.08957,-0.489204 -0.53399,0.34451 -1.088651,0.833713 -0.334174,-0.261827 -0.437527,-0.458198 -0.103353,-0.199815 -0.103353,-0.523654 v -1.701879 q 0,-0.179145 -0.02756,-0.234266 -0.04823,-0.09646 -0.130914,-0.09646 -0.06201,0 -0.186035,0.106798 l -0.09302,-0.09646 0.764812,-0.668349 0.623563,0.509875 -0.254937,0.234266 v 1.829347 q 0,0.203261 0.05168,0.299724 0.05168,0.09302 0.251492,0.237711 l 0.630453,-0.465088 v -1.881023 l -0.244602,-0.254937 z"
           style="font-style:normal;font-variant:normal;font-weight:normal;font-stretch:normal;font-size:7.05556px;font-family:'Old English Text MT';-inkscape-font-specification:'Old English Text MT, Normal';font-variant-ligatures:normal;font-variant-caps:normal;font-variant-numeric:normal;font-variant-east-asian:normal;stroke-width:0.264583;fill:#ffcc00"
           id="path2993" />
        <path
           d="m 28.632304,16.123836 0.52021,0.623563 -0.52021,0.461643 -0.434082,-0.54777 -0.341065,0.310058 v 2.008492 l 0.392742,0.282498 0.354845,-0.282498 0.07924,0.110243 -0.881945,0.706245 q -0.282498,-0.251492 -0.475424,-0.361735 -0.18948,-0.110243 -0.416856,-0.172255 v -0.07579 q 0.151584,-0.106798 0.19637,-0.213596 0.04823,-0.110243 0.04823,-0.416857 v -1.4056 q 0,-0.265272 -0.06201,-0.3514 -0.05857,-0.08957 -0.130914,-0.08957 -0.07924,0 -0.217041,0.137804 l -0.08268,-0.09991 0.726916,-0.623563 q 0.292833,0.223932 0.399631,0.389296 0.0689,0.103353 0.0689,0.285943 z"
           style="font-style:normal;font-variant:normal;font-weight:normal;font-stretch:normal;font-size:7.05556px;font-family:'Old English Text MT';-inkscape-font-specification:'Old English Text MT, Normal';font-variant-ligatures:normal;font-variant-caps:normal;font-variant-numeric:normal;font-variant-east-asian:normal;stroke-width:0.264583;fill:#ffcc00"
           id="path2995" />
        <path
           d="m 31.546857,19.251985 0.509874,-0.506429 0.50643,0.475423 q -0.189481,0.837159 -0.933622,1.195449 l -0.08268,-0.120578 q 0.227376,-0.186036 0.275608,-0.265273 0.07924,-0.130914 0.07924,-0.258382 0,-0.113688 -0.07235,-0.227377 -0.0689,-0.117133 -0.282498,-0.292833 z m 1.371149,0 0.509874,-0.506429 0.50643,0.475423 q -0.189481,0.837159 -0.933622,1.195449 l -0.08268,-0.120578 q 0.227376,-0.186036 0.275608,-0.265273 0.07924,-0.130914 0.07924,-0.258382 0,-0.113688 -0.07235,-0.227377 -0.0689,-0.117133 -0.282498,-0.292833 z"
           style="font-style:normal;font-variant:normal;font-weight:normal;font-stretch:normal;font-size:7.05556px;font-family:'Old English Text MT';-inkscape-font-specification:'Old English Text MT, Normal';font-variant-ligatures:normal;font-variant-caps:normal;font-variant-numeric:normal;font-variant-east-asian:normal;stroke-width:0.264583;fill:#ffcc00"
           id="path2997" />
        <path
           d="m 38.006415,14.676895 1.188559,1.512398 -1.105877,0.747586 q 0.471979,0.282498 0.754477,0.671794 0.285943,0.385851 0.444417,0.999079 0.07235,0.296278 0.14814,0.434082 0.05168,0.08957 0.192925,0.213596 l 0.34451,-0.292833 0.117133,0.124023 -0.833713,0.70969 q -0.251493,-0.158474 -0.361736,-0.337619 -0.07924,-0.120579 -0.289388,-0.816488 -0.113688,-0.368626 -0.289388,-0.630453 -0.1757,-0.261828 -0.372071,-0.392741 -0.19637,-0.134359 -0.5271,-0.237712 l -0.234266,0.151584 v 1.429716 q 0.313504,0.103353 0.661459,0.292833 l 0.35829,-0.316949 0.110243,0.120579 -0.895726,0.73725 q -0.489203,-0.248047 -0.850939,-0.347954 -0.35829,-0.09991 -0.72347,-0.09991 -0.458198,0 -0.881945,0.151584 -0.223932,0.08268 -0.499539,0.296278 l -0.09302,-0.08268 q 0.341065,-0.437527 0.685574,-0.644233 0.347955,-0.206706 0.850939,-0.279053 v -0.15503 q 0,-0.334174 -0.08613,-0.544325 -0.08613,-0.213596 -0.313504,-0.444418 -0.227376,-0.234266 -0.478868,-0.382405 -0.16192,-0.09302 -0.454753,-0.186036 v -0.141249 q 0.279053,-0.103353 0.685574,-0.37896 L 35.9049,16.123836 q 0,-0.444417 -0.06201,-0.633898 -0.06201,-0.192925 -0.241157,-0.320394 -0.179145,-0.127468 -0.399631,-0.127468 -0.134359,0 -0.244602,0.04134 -0.110243,0.04134 -0.272163,0.155029 l -0.113688,-0.08268 q 0.268717,-0.275608 0.482313,-0.372071 0.217042,-0.09991 0.533991,-0.09991 0.354845,0 0.589111,0.141249 0.237712,0.141249 0.354845,0.385851 0.0689,0.14814 0.07924,0.427192 z m -0.458198,0.51332 -0.36518,0.244602 v 1.905139 l 1.347033,-0.899171 z m -0.523655,0.354845 -0.413411,0.289388 v 2.983455 q 0.206705,0.03101 0.413411,0.09302 z m -1.119657,0.771702 -0.764811,0.516764 q 0.217041,0.103353 0.35829,0.206706 0.144694,0.103353 0.406521,0.34451 z"
           style="font-style:normal;font-variant:normal;font-weight:normal;font-stretch:normal;font-size:7.05556px;font-family:'Old English Text MT';-inkscape-font-specification:'Old English Text MT, Normal';font-variant-ligatures:normal;font-variant-caps:normal;font-variant-numeric:normal;font-variant-east-asian:normal;stroke-width:0.264583;fill:#ffcc00"
           id="path2999" />
        <path
           d="m 41.082889,16.123836 0.613227,0.50643 -0.272163,0.265272 v 1.874133 q 0,0.296279 0.05512,0.385851 0.05512,0.08957 0.113688,0.08957 0.04134,0 0.07579,-0.01723 0.04823,-0.02411 0.199816,-0.137804 l 0.08268,0.106798 -0.782037,0.599447 q -0.275608,-0.19637 -0.354845,-0.368625 -0.07924,-0.1757 -0.07924,-0.609782 v -1.922365 l -0.258382,-0.265272 z m -0.07235,-0.258382 h -0.189481 l 0.310059,-1.285022 h 0.802708 z"
           style="font-style:normal;font-variant:normal;font-weight:normal;font-stretch:normal;font-size:7.05556px;font-family:'Old English Text MT';-inkscape-font-specification:'Old English Text MT, Normal';font-variant-ligatures:normal;font-variant-caps:normal;font-variant-numeric:normal;font-variant-east-asian:normal;stroke-width:0.264583;fill:#ffcc00"
           id="path3001" />
        <path
           d="m 43.907868,14.859485 v 0.08957 q -0.261827,0.172255 -0.3514,0.36518 -0.08957,0.189481 -0.08957,0.616673 v 1.188559 l 1.026639,-0.995634 0.699355,0.771702 -0.799263,0.699355 q 0.272163,0.192925 0.406521,0.420302 0.137804,0.223931 0.213596,0.661459 0.07579,0.434082 0.120579,0.499539 0.04479,0.06546 0.08268,0.06546 0.04134,0 0.227377,-0.141249 l 0.06546,0.110243 -0.802708,0.585666 q -0.141249,-0.144694 -0.210151,-0.306613 -0.0689,-0.16192 -0.103353,-0.471979 L 43.418667,19.79631 Q 43.208516,19.596495 43.012146,19.482807 42.81922,19.369118 42.529832,19.276101 v -0.06546 q 0.158474,-0.106798 0.203261,-0.220486 0.04479,-0.117134 0.04479,-0.582222 V 15.90335 q 0,-0.296278 -0.02756,-0.413412 -0.0379,-0.172255 -0.113688,-0.265272 -0.07235,-0.09646 -0.237712,-0.1757 l 0.05168,-0.09991 q 0.206706,0.07579 0.310059,0.141249 0.106798,0.06201 0.261827,0.206706 0.223931,-0.213596 0.423747,-0.310059 0.203261,-0.09991 0.461643,-0.127469 z m 0.18259,1.832792 -0.623562,0.602892 v 0.919842 l 1.133437,-0.968073 z m -0.623562,1.701879 v 0.596002 l 0.406521,0.282498 0.502984,-0.413412 q -0.08957,-0.578777 -0.502984,-0.823379 z"
           style="font-style:normal;font-variant:normal;font-weight:normal;font-stretch:normal;font-size:7.05556px;font-family:'Old English Text MT';-inkscape-font-specification:'Old English Text MT, Normal';font-variant-ligatures:normal;font-variant-caps:normal;font-variant-numeric:normal;font-variant-east-asian:normal;stroke-width:0.264583;fill:#ffcc00"
           id="path3003" />
        <path
           d="m 46.784524,14.945613 h 0.437528 l -0.475424,0.744141 h -0.137804 z m -0.261827,1.178223 0.613227,0.50643 -0.272163,0.265272 v 1.874133 q 0,0.296279 0.05512,0.385851 0.05512,0.08957 0.113688,0.08957 0.04134,0 0.07579,-0.01723 0.04823,-0.02411 0.199816,-0.137804 l 0.08268,0.106798 -0.782037,0.599447 q -0.275608,-0.19637 -0.354845,-0.368625 -0.07924,-0.1757 -0.07924,-0.609782 V 16.895538 L 45.91636,16.630266 Z"
           style="font-style:normal;font-variant:normal;font-weight:normal;font-stretch:normal;font-size:7.05556px;font-family:'Old English Text MT';-inkscape-font-specification:'Old English Text MT, Normal';font-variant-ligatures:normal;font-variant-caps:normal;font-variant-numeric:normal;font-variant-east-asian:normal;stroke-width:0.264583;fill:#ffcc00"
           id="path3005" />
        <path
           d="m 48.08677,15.152319 0.509875,-0.50643 0.506429,0.475424 q -0.18948,0.837159 -0.933621,1.195449 l -0.08268,-0.120579 q 0.227377,-0.186035 0.275608,-0.265272 0.07924,-0.130914 0.07924,-0.258383 0,-0.113688 -0.07235,-0.227376 -0.0689,-0.117133 -0.282498,-0.292833 z m 1.302247,0 0.509875,-0.50643 0.506429,0.475424 q -0.18948,0.837159 -0.933622,1.195449 l -0.08268,-0.120579 q 0.227377,-0.186035 0.275608,-0.265272 0.07924,-0.130914 0.07924,-0.258383 0,-0.113688 -0.07235,-0.227376 -0.0689,-0.117133 -0.282498,-0.292833 z"
           style="font-style:normal;font-variant:normal;font-weight:normal;font-stretch:normal;font-size:7.05556px;font-family:'Old English Text MT';-inkscape-font-specification:'Old English Text MT, Normal';font-variant-ligatures:normal;font-variant-caps:normal;font-variant-numeric:normal;font-variant-east-asian:normal;stroke-width:0.264583;fill:#ffcc00"
           id="path3007" />
        <path
           d="m 56.003605,14.576987 0.127469,0.07924 q -0.285944,0.489204 -0.406522,0.864719 -0.120578,0.375516 -0.158474,0.8785 l 1.319472,-1.04731 0.802708,0.933622 -1.371149,0.978408 q 0.316949,0.168809 0.551215,0.420302 0.237712,0.248047 0.551216,0.778592 0.313504,0.530545 0.382406,0.606337 0.0689,0.07235 0.134359,0.07235 0.06546,0 0.199815,-0.134359 l 0.179145,-0.16881 0.106799,0.127469 -0.85783,0.830268 q -0.179145,-0.124023 -0.282498,-0.254937 -0.103353,-0.134359 -0.451308,-0.757921 l -0.888835,1.012858 q -0.413412,-0.18259 -0.747586,-0.261827 -0.334175,-0.07924 -0.685574,-0.07924 -0.34451,0 -0.67524,0.07924 -0.330729,0.07579 -0.761366,0.261827 l -0.110243,-0.158474 q 0.675239,-0.537435 0.968072,-0.954292 0.144694,-0.206706 0.144694,-0.399631 0,-0.182591 -0.120578,-0.303169 -0.120579,-0.120578 -0.285943,-0.120578 -0.151585,0 -0.268718,0.151584 l -0.120578,-0.05512 q 0.06201,-0.203261 0.206706,-0.313504 0.148139,-0.113688 0.334174,-0.113688 0.120578,0 0.251492,0.04823 0.130914,0.04823 0.272163,0.14814 0.0069,-0.110243 0.0069,-0.192926 0,-0.368625 -0.213596,-0.596002 -0.213596,-0.227376 -0.51332,-0.227376 -0.172254,0 -0.344509,0.151584 l -0.113689,-0.04479 q 0.08268,-0.220486 0.244602,-0.330729 0.16192,-0.113689 0.375516,-0.113689 0.113688,0 0.244602,0.04823 0.134359,0.04479 0.282498,0.137804 -0.0069,-0.144695 -0.0069,-0.251493 0,-0.320394 0.130913,-0.564996 0.130914,-0.244602 0.747587,-0.888835 -0.365181,0.210151 -0.578777,0.282498 -0.210151,0.0689 -0.416857,0.0689 -0.110243,0 -0.285943,-0.03101 -0.1757,-0.03101 -0.251492,-0.03101 -0.251492,0 -0.427192,0.130914 -0.172255,0.127469 -0.330729,0.430637 l -0.113689,-0.02756 q 0.07235,-0.347955 0.1757,-0.52021 0.16192,-0.275608 0.403077,-0.427192 0.244602,-0.151585 0.492649,-0.151585 0.192925,0 0.478868,0.08957 0.285944,0.08957 0.468534,0.08957 0.299723,0 0.644233,-0.179145 l 0.124024,0.07924 q -0.282498,0.413411 -0.427193,0.947402 -0.141249,0.530545 -0.141249,1.030084 l 0.01378,0.981853 q 0,0.220486 -0.0689,0.406521 -0.0689,0.18259 -0.199816,0.330729 -0.127468,0.144695 -0.158474,0.172255 l -1.012859,0.847494 q 0.265272,-0.141249 0.568441,-0.272162 0.551216,-0.234267 0.785482,-0.406522 0.237712,-0.172255 0.365181,-0.437527 0.127468,-0.268718 0.127468,-0.678685 l -0.01722,-1.071425 q 0,-0.389296 0.134359,-0.88539 0.137804,-0.499539 0.468533,-1.043865 z m 0.437527,1.326363 -0.875054,0.7028 v 0.103353 l 0.0069,0.54777 -0.0069,0.334175 1.446941,-1.023194 z m 0.313504,2.745743 q -0.320394,-0.51332 -0.592557,-0.7028 -0.272162,-0.192926 -0.596001,-0.206706 -0.01034,0.389296 -0.15503,0.647678 -0.141249,0.258383 -0.478868,0.496095 0.530545,0.02756 0.782037,0.08957 0.251492,0.06201 0.558106,0.220486 z"
           style="font-style:normal;font-variant:normal;font-weight:normal;font-stretch:normal;font-size:7.05556px;font-family:'Old English Text MT';-inkscape-font-specification:'Old English Text MT, Normal';font-variant-ligatures:normal;font-variant-caps:normal;font-variant-numeric:normal;font-variant-east-asian:normal;stroke-width:0.264583;fill:#ffcc00"
           id="path3009" />
        <path
           d="m 59.686414,14.945613 h 0.437527 l -0.475423,0.744141 h -0.137804 z m -0.261827,1.178223 0.613227,0.50643 -0.272163,0.265272 v 1.874133 q 0,0.296279 0.05512,0.385851 0.05512,0.08957 0.113688,0.08957 0.04134,0 0.07579,-0.01723 0.04823,-0.02411 0.199816,-0.137804 l 0.08268,0.106798 -0.782037,0.599447 q -0.275608,-0.19637 -0.354845,-0.368625 -0.07924,-0.1757 -0.07924,-0.609782 V 16.895531 L 58.81824,16.630259 Z"
           style="font-style:normal;font-variant:normal;font-weight:normal;font-stretch:normal;font-size:7.05556px;font-family:'Old English Text MT';-inkscape-font-specification:'Old English Text MT, Normal';font-variant-ligatures:normal;font-variant-caps:normal;font-variant-numeric:normal;font-variant-east-asian:normal;stroke-width:0.264583;fill:#ffcc00"
           id="path3011" />
        <path
           d="m 62.862797,16.123836 0.564996,0.5271 0.334174,-0.323839 0.09646,0.09302 q -0.241157,0.220486 -0.292833,0.334174 -0.0689,0.151584 -0.0689,0.416857 v 1.636421 q 0,0.227377 0.07235,0.33762 0.04479,0.07235 0.09991,0.07235 0.04823,0 0.227376,-0.134359 l 0.08268,0.106798 -0.740696,0.606337 Q 62.952371,19.579274 62.869688,19.41391 62.790448,19.2451 62.790448,18.873029 V 16.97478 l -0.375516,-0.323839 -0.558106,0.444418 v 1.96026 l 0.248047,0.248047 -0.609782,0.492649 -0.613227,-0.492649 0.268717,-0.248047 v -1.760445 q 0,-0.375515 -0.07579,-0.506429 -0.05168,-0.08957 -0.117133,-0.08957 -0.0689,0 -0.206706,0.106798 l -0.08268,-0.09646 0.733806,-0.585667 q 0.303168,0.213596 0.37896,0.33762 0.07579,0.124023 0.07579,0.34451 v 0.117133 z"
           style="font-style:normal;font-variant:normal;font-weight:normal;font-stretch:normal;font-size:7.05556px;font-family:'Old English Text MT';-inkscape-font-specification:'Old English Text MT, Normal';font-variant-ligatures:normal;font-variant-caps:normal;font-variant-numeric:normal;font-variant-east-asian:normal;stroke-width:0.264583;fill:#ffcc00"
           id="path3013" />
        <path
           d="m 64.289065,14.949058 2.339221,1.608861 q 0.05512,-0.127469 0.120579,-0.192926 0.0689,-0.06546 0.206706,-0.124023 v 0.141249 q -0.0689,0.09302 -0.08957,0.168809 -0.02067,0.07579 -0.02067,0.310059 v 2.318551 q -0.437528,0.165365 -0.651124,0.289388 -0.213596,0.120579 -0.461643,0.327284 -0.406521,-0.265272 -0.720025,-0.385851 -0.313504,-0.120578 -0.67524,-0.165364 v -0.06546 q 0.124024,-0.106798 0.158475,-0.213596 0.0379,-0.110243 0.0379,-0.451308 V 16.7095 q 0.471978,-0.130914 0.668349,-0.296279 l -0.912951,-0.623562 z m 1.853463,2.1084 -0.706245,-0.489204 q -0.09646,0.07924 -0.196371,0.137804 v 2.12907 l 0.902616,0.399631 z"
           style="font-style:normal;font-variant:normal;font-weight:normal;font-stretch:normal;font-size:7.05556px;font-family:'Old English Text MT';-inkscape-font-specification:'Old English Text MT, Normal';font-variant-ligatures:normal;font-variant-caps:normal;font-variant-numeric:normal;font-variant-east-asian:normal;stroke-width:0.264583;fill:#ffcc00"
           id="path3015" />
        <path
           d="m 69.973478,16.271975 0.124024,0.04823 q -0.186036,0.289388 -0.237712,0.444417 -0.04823,0.151585 -0.04823,0.413412 v 1.467612 q 0,0.36518 0.05512,0.458198 0.05857,0.08957 0.137804,0.08957 0.04134,0 0.08613,-0.02067 0.02756,-0.01723 0.16192,-0.124024 l 0.07579,0.113688 -0.768257,0.633898 q -0.265272,-0.206705 -0.354845,-0.368625 -0.08957,-0.165365 -0.09991,-0.458198 l -1.047309,0.826823 q -0.589112,-0.482313 -0.589112,-0.950847 0,-0.313503 0.127469,-0.589111 0.168809,-0.361736 0.582221,-0.844049 l -0.413412,-0.881945 0.04823,-0.09646 q 0.134359,0.01378 0.199816,0.01378 0.406521,0 0.71658,-0.323839 0.251492,0.148139 0.54777,0.237712 0.299724,0.08957 0.458198,0.08957 0.07235,0 0.110243,-0.02412 0.0379,-0.02756 0.127469,-0.15503 z m -0.868165,0.658014 -1.178223,-0.361735 0.420302,0.888835 0.757921,0.354845 z m 0,1.023194 -0.833713,-0.389296 q -0.192926,0.420302 -0.192926,0.737251 0,0.558106 0.50643,0.919841 l 0.520209,-0.420302 z"
           style="font-style:normal;font-variant:normal;font-weight:normal;font-stretch:normal;font-size:7.05556px;font-family:'Old English Text MT';-inkscape-font-specification:'Old English Text MT, Normal';font-variant-ligatures:normal;font-variant-caps:normal;font-variant-numeric:normal;font-variant-east-asian:normal;stroke-width:0.264583;fill:#ffcc00"
           id="path3017" />
        <path
           d="m 72.171448,16.123836 0.971518,1.133437 -1.543404,1.081761 v 0.627008 l 0.799263,0.316949 0.54088,-0.368626 0.07579,0.103353 -1.116211,0.778592 q -0.341065,-0.18259 -0.561551,-0.261827 -0.220487,-0.07924 -0.627008,-0.165365 v -0.08613 q 0.117133,-0.0689 0.155029,-0.16881 0.04134,-0.103353 0.04134,-0.440972 V 16.70261 q 0.323839,-0.117134 0.537435,-0.213596 0.155029,-0.07235 0.726915,-0.365181 z m -0.523654,0.396187 -0.04823,0.02412 v 1.560629 l 0.906061,-0.633898 z"
           style="font-style:normal;font-variant:normal;font-weight:normal;font-stretch:normal;font-size:7.05556px;font-family:'Old English Text MT';-inkscape-font-specification:'Old English Text MT, Normal';font-variant-ligatures:normal;font-variant-caps:normal;font-variant-numeric:normal;font-variant-east-asian:normal;stroke-width:0.264583;fill:#ffcc00"
           id="path3019" />
        <path
           d="m 73.415126,16.726728 0.723471,-0.602892 q 0.296278,0.199816 0.382406,0.347955 0.08957,0.148139 0.08957,0.406522 v 0.07579 l 1.043865,-0.830269 q 0.53399,0.561551 0.53399,1.202339 0,0.34451 -0.1757,0.68902 -0.1757,0.341065 -0.551216,0.651123 -0.375515,0.306614 -1.212674,0.806153 -0.36518,0.220486 -0.437527,0.279053 -0.15503,0.120579 -0.220487,0.234267 -0.04823,0.08268 -0.04823,0.186035 0,0.1757 0.172255,0.323839 0.1757,0.151585 0.461643,0.151585 0.206706,0 0.341065,-0.07235 0.06546,-0.03445 0.127468,-0.14814 0.06201,-0.110243 0.106798,-0.144694 0.04479,-0.03445 0.106798,-0.03445 0.0689,0 0.110244,0.0379 0.04134,0.0379 0.04134,0.09991 0,0.110243 -0.16192,0.217041 -0.248047,0.172255 -0.627008,0.172255 -0.396186,0 -0.609782,-0.18948 -0.213596,-0.186035 -0.213596,-0.444418 0,-0.254937 0.237712,-0.496094 0.113688,-0.117133 0.141249,-0.165365 0.07579,-0.130913 0.103353,-0.241156 0.02756,-0.113689 0.02756,-0.316949 v -1.646757 q 0,-0.34451 -0.07924,-0.468533 -0.06201,-0.09646 -0.134359,-0.09646 -0.05857,0 -0.151584,0.08957 -0.01378,0.01378 -0.04479,0.04134 z m 1.195449,0.385851 v 1.956816 q 0.485759,-0.3514 0.68902,-0.730361 0.206706,-0.382406 0.206706,-0.726916 0,-0.465088 -0.378961,-0.909505 z"
           style="font-style:normal;font-variant:normal;font-weight:normal;font-stretch:normal;font-size:7.05556px;font-family:'Old English Text MT';-inkscape-font-specification:'Old English Text MT, Normal';font-variant-ligatures:normal;font-variant-caps:normal;font-variant-numeric:normal;font-variant-east-asian:normal;stroke-width:0.264583;fill:#ffcc00"
           id="path3021" />
        <path
           d="m 78.420859,17.401968 0.795818,0.416856 v 1.450386 q -0.289389,0.02756 -0.523655,0.141249 -0.234267,0.113689 -0.530545,0.385851 -0.254938,-0.151584 -0.444418,-0.210151 -0.186035,-0.05857 -0.396186,-0.05857 -0.323839,0 -0.575331,0.19637 -0.09302,0.07235 -0.134359,0.07235 -0.0379,0 -0.07579,-0.0379 -0.0379,-0.0379 -0.0379,-0.07579 0,-0.04134 0.07235,-0.110243 0.04134,-0.04134 0.141249,-0.158474 l 0.313503,-0.389296 0.444418,-0.589112 -0.754476,-0.406522 v -1.285021 q 0.354845,-0.110243 0.55466,-0.244602 0.203261,-0.137804 0.389296,-0.375516 0.440973,0.186036 0.709691,0.261828 0.192925,0.05168 0.368625,0.05168 0.192925,0 0.299723,-0.08268 0.106799,-0.08613 0.106799,-0.179145 0,-0.06201 -0.0689,-0.124024 -0.134359,-0.120578 -0.134359,-0.234266 0,-0.106798 0.05857,-0.16881 0.05857,-0.06546 0.130914,-0.06546 0.09646,0 0.172255,0.08957 0.07924,0.08613 0.07924,0.230822 0,0.148139 -0.06201,0.289388 -0.06201,0.141249 -0.237712,0.365181 z m -1.009414,0.237711 0.471979,0.244602 0.751031,-0.999078 q -0.230821,0.06546 -0.399631,0.06546 -0.423747,0 -0.823379,-0.282498 z m 0.592557,0.313504 -0.830268,1.112767 q 0.151584,-0.05168 0.282498,-0.07579 0.130913,-0.02412 0.237711,-0.02412 0.396187,0 0.823379,0.261827 v -0.999078 z"
           style="font-style:normal;font-variant:normal;font-weight:normal;font-stretch:normal;font-size:7.05556px;font-family:'Old English Text MT';-inkscape-font-specification:'Old English Text MT, Normal';font-variant-ligatures:normal;font-variant-caps:normal;font-variant-numeric:normal;font-variant-east-asian:normal;stroke-width:0.264583;fill:#ffcc00"
           id="path3023" />
        <path
           d="m 79.729991,16.502797 0.961182,-1.188559 h 0.09991 l -0.03445,0.950847 h 0.692464 v 0.389296 H 80.75663 v 2.318551 l 0.385851,0.285943 0.220486,-0.172255 0.08613,0.103353 -0.757921,0.606337 Q 80.30188,19.400124 79.809231,19.258875 v -0.0689 q 0.137804,-0.09302 0.18259,-0.192925 0.05857,-0.127469 0.05857,-0.368626 v -1.974041 h -0.320394 z"
           style="font-style:normal;font-variant:normal;font-weight:normal;font-stretch:normal;font-size:7.05556px;font-family:'Old English Text MT';-inkscape-font-specification:'Old English Text MT, Normal';font-variant-ligatures:normal;font-variant-caps:normal;font-variant-numeric:normal;font-variant-east-asian:normal;stroke-width:0.264583;fill:#ffcc00"
           id="path3025" />
        <path
           d="m 84.263742,16.271975 0.124024,0.04823 q -0.186036,0.289388 -0.237712,0.444417 -0.04823,0.151585 -0.04823,0.413412 v 1.467612 q 0,0.36518 0.05512,0.458198 0.05857,0.08957 0.137804,0.08957 0.04134,0 0.08613,-0.02067 0.02756,-0.01723 0.161919,-0.124024 l 0.07579,0.113688 -0.768256,0.633898 q -0.265273,-0.206705 -0.354846,-0.368625 -0.08957,-0.165365 -0.09991,-0.458198 l -1.04731,0.826823 q -0.589112,-0.482313 -0.589112,-0.950847 0,-0.313503 0.127469,-0.589111 0.16881,-0.361736 0.582221,-0.844049 l -0.413411,-0.881945 0.04823,-0.09646 q 0.134359,0.01378 0.199816,0.01378 0.406521,0 0.71658,-0.323839 0.251492,0.148139 0.54777,0.237712 0.299724,0.08957 0.458198,0.08957 0.07235,0 0.110244,-0.02412 0.0379,-0.02756 0.127468,-0.15503 z m -0.868164,0.658014 -1.178224,-0.361735 0.420302,0.888835 0.757922,0.354845 z m 0,1.023194 -0.833714,-0.389296 q -0.192926,0.420302 -0.192926,0.737251 0,0.558106 0.50643,0.919841 l 0.52021,-0.420302 z"
           style="font-style:normal;font-variant:normal;font-weight:normal;font-stretch:normal;font-size:7.05556px;font-family:'Old English Text MT';-inkscape-font-specification:'Old English Text MT, Normal';font-variant-ligatures:normal;font-variant-caps:normal;font-variant-numeric:normal;font-variant-east-asian:normal;stroke-width:0.264583;fill:#ffcc00"
           id="path3027" />
      </g>
    </g>
    <g
       id="g901"
       transform="matrix(0.21336071,0,0,0.21257763,20.757991,7.1384441)"
       style="stroke-width:0.46955233;fill:none;stroke:#00ffff;stroke-miterlimit:4;stroke-dasharray:none">
      <g
         aria-label="Finnur"
         transform="translate(9.5084636,6.9246419)"
         id="text1130"
         style="font-style:normal;font-variant:normal;font-weight:normal;font-stretch:normal;font-size:10.5833px;line-height:1.25;font-family:'Cooper Black';-inkscape-font-specification:'Cooper Black, Normal';font-variant-ligatures:normal;font-variant-caps:normal;font-variant-numeric:normal;font-variant-east-asian:normal;white-space:pre;shape-inside:url(#rect1132);fill:none;fill-opacity:1;stroke:#00ffff;stroke-width:0.46955233;stroke-miterlimit:4;stroke-dasharray:none">
        <path
           d="m 75.514107,99.054503 q -0.356566,0 -0.439249,0.180867 -0.06201,0.134359 -0.118855,0.527098 -0.05168,0.392742 -0.05168,0.713132 0,0.1912 0.124023,0.26355 0.124023,0.0724 0.465086,0.0724 0.227376,0 0.335896,-0.0827 0.10852,-0.0827 0.149861,-0.27905 0.118856,-0.563269 0.485757,-0.563269 0.630451,0 0.630451,1.508949 0,0.95601 -0.273885,1.40559 -0.165364,0.27389 -0.454751,0.27389 -0.30489,0 -0.351398,-0.40825 -0.02584,-0.26354 -0.06718,-0.37206 -0.03617,-0.10852 -0.144693,-0.20671 -0.170532,-0.1602 -0.496092,-0.1602 -0.232544,0 -0.315226,0.0827 -0.08268,0.0827 -0.07235,0.31522 0,0.0413 -0.0052,0.48059 0,0.894 0.186035,1.09037 0.06201,0.0775 0.124023,0.10335 0.06718,0.0207 0.341063,0.062 0.134358,0.0207 0.227376,0.13953 0.09302,0.11886 0.09302,0.27388 0,0.39791 -0.465087,0.5116 -0.671791,0.1602 -1.886183,0.1602 -1.064531,0 -1.467606,-0.12403 -0.180867,-0.0568 -0.294555,-0.2067 -0.113688,-0.14986 -0.113688,-0.33073 0,-0.22738 0.165364,-0.3669 0.04134,-0.031 0.28422,-0.12919 0.289387,-0.11369 0.346231,-0.5271 0.09302,-0.63562 0.09302,-2.89904 0,-0.976681 -0.06718,-1.266068 -0.06718,-0.289387 -0.325561,-0.403075 -0.258381,-0.113688 -0.341063,-0.19637 -0.07751,-0.08785 -0.07751,-0.248046 0,-0.227376 0.222208,-0.377237 0.222207,-0.155029 0.547768,-0.155029 0.206705,0 0.604612,0.03101 0.842323,0.06718 2.015375,0.06718 1.875848,0 2.526969,-0.103352 0.08785,-0.01033 0.134359,-0.01033 0.180866,0 0.346231,0.206705 0.454751,0.578774 0.454751,1.281571 0,0.320393 -0.149861,0.511595 -0.149862,0.191206 -0.39274,0.191206 -0.180867,0 -0.273884,-0.0724 -0.09302,-0.07235 -0.475422,-0.506428 -0.232543,-0.268716 -0.563271,-0.351399 -0.325561,-0.08268 -1.21956,-0.10852 z"
           style="font-style:normal;font-variant:normal;font-weight:normal;font-stretch:normal;font-size:10.5833px;font-family:'Cooper Black';-inkscape-font-specification:'Cooper Black, Normal';font-variant-ligatures:normal;font-variant-caps:normal;font-variant-numeric:normal;font-variant-east-asian:normal;stroke-width:0.46955233;fill:none;stroke:#00ffff;stroke-miterlimit:4;stroke-dasharray:none"
           id="path871" />
        <path
           d="m 81.699756,100.25339 v 3.00239 q 0,0.35657 0.06201,0.52193 0.06718,0.16537 0.263549,0.30489 0.160197,0.11369 0.211873,0.19637 0.05684,0.0775 0.05684,0.20154 0,0.66663 -1.689814,0.66663 -0.909502,0 -1.441768,-0.1447 -0.180867,-0.0517 -0.294555,-0.18087 -0.10852,-0.12919 -0.10852,-0.29455 0,-0.13953 0.05684,-0.21704 0.05684,-0.0775 0.289387,-0.24805 0.160197,-0.11885 0.227376,-0.38757 0.06718,-0.26871 0.06718,-0.80098 0,-0.17053 -0.02584,-0.63562 -0.02067,-0.47025 -0.03101,-0.54777 -0.03101,-0.21187 -0.289387,-0.32556 -0.320393,-0.13952 -0.320393,-0.41341 0,-0.32556 0.418578,-0.48575 0.578774,-0.22221 1.24023,-0.37724 0.661457,-0.15503 1.02319,-0.15503 0.28422,0 0.28422,0.32039 z m -1.02319,-2.263418 q 0.449583,0 0.713132,0.170532 0.263549,0.165364 0.263549,0.449583 0,0.397908 -0.397907,0.630451 -0.63045,0.366901 -1.52445,0.366901 -0.377237,0 -0.599445,-0.144693 -0.299722,-0.186035 -0.299722,-0.516763 0,-0.444416 0.635618,-0.697629 0.645953,-0.258382 1.209225,-0.258382 z"
           style="font-style:normal;font-variant:normal;font-weight:normal;font-stretch:normal;font-size:10.5833px;font-family:'Cooper Black';-inkscape-font-specification:'Cooper Black, Normal';font-variant-ligatures:normal;font-variant-caps:normal;font-variant-numeric:normal;font-variant-east-asian:normal;stroke-width:0.46955233;fill:none;stroke:#00ffff;stroke-miterlimit:4;stroke-dasharray:none"
           id="path873" />
        <path
           d="m 88.867255,101.80368 0.07235,1.81901 q 0.01034,0.2067 0.06201,0.30489 0.05684,0.0982 0.320393,0.37723 0.07751,0.0827 0.07751,0.23255 0,0.34106 -0.408242,0.47542 -0.408243,0.13436 -1.457271,0.13436 -0.713133,0 -1.007687,-0.12403 -0.30489,-0.12919 -0.30489,-0.41858 0,-0.10335 0.03101,-0.14986 0.031,-0.0517 0.206705,-0.24288 0.206705,-0.21704 0.206705,-1.44693 0,-0.71313 -0.165364,-1.0542 -0.134359,-0.27388 -0.496093,-0.27388 -0.346231,0 -0.475421,0.22221 -0.129191,0.22221 -0.129191,0.80615 v 1.02319 q 0,0.30489 0.03617,0.41857 0.04134,0.11369 0.258382,0.43925 0.05684,0.093 0.05684,0.21188 0,0.30489 -0.423746,0.44958 -0.423745,0.14469 -1.322912,0.14469 -1.4366,0 -1.4366,-0.59427 0,-0.12403 0.04134,-0.18604 0.04651,-0.0672 0.211872,-0.18603 0.134359,-0.0982 0.170532,-0.22221 0.03617,-0.12919 0.06718,-0.62528 0.03617,-0.58911 0.03617,-1.23507 0,-0.35656 -0.05684,-0.46508 -0.05168,-0.11369 -0.310058,-0.27389 -0.222208,-0.13952 -0.222208,-0.34106 0,-0.20671 0.180867,-0.3359 0.180867,-0.13435 0.744138,-0.33589 0.496092,-0.1757 0.956011,-0.29456 0.459919,-0.12402 0.630451,-0.12402 0.155029,0 0.258381,0.11369 0.10852,0.11369 0.10852,0.26871 0,0.0155 -0.0052,0.12919 -0.0052,0.0413 -0.0052,0.0724 0,0.24805 0.206705,0.24805 0.124023,0 0.263549,-0.19637 0.444416,-0.640788 1.291907,-0.640788 0.651121,0 1.116207,0.341068 0.325561,0.24287 0.454751,0.5736 0.129191,0.32556 0.160197,0.96118 z"
           style="font-style:normal;font-variant:normal;font-weight:normal;font-stretch:normal;font-size:10.5833px;font-family:'Cooper Black';-inkscape-font-specification:'Cooper Black, Normal';font-variant-ligatures:normal;font-variant-caps:normal;font-variant-numeric:normal;font-variant-east-asian:normal;stroke-width:0.46955233;fill:none;stroke:#00ffff;stroke-miterlimit:4;stroke-dasharray:none"
           id="path875" />
        <path
           d="m 95.967574,101.80368 0.07235,1.81901 q 0.01034,0.2067 0.06201,0.30489 0.05684,0.0982 0.320393,0.37723 0.07751,0.0827 0.07751,0.23255 0,0.34106 -0.408242,0.47542 -0.408243,0.13436 -1.457271,0.13436 -0.713133,0 -1.007687,-0.12403 -0.30489,-0.12919 -0.30489,-0.41858 0,-0.10335 0.03101,-0.14986 0.03101,-0.0517 0.206705,-0.24288 0.206706,-0.21704 0.206706,-1.44693 0,-0.71313 -0.165364,-1.0542 -0.134359,-0.27388 -0.496093,-0.27388 -0.346231,0 -0.475421,0.22221 -0.129191,0.22221 -0.129191,0.80615 v 1.02319 q 0,0.30489 0.03617,0.41857 0.04134,0.11369 0.258382,0.43925 0.05684,0.093 0.05684,0.21188 0,0.30489 -0.423746,0.44958 -0.423745,0.14469 -1.322912,0.14469 -1.4366,0 -1.4366,-0.59427 0,-0.12403 0.04134,-0.18604 0.04651,-0.0672 0.211872,-0.18603 0.134359,-0.0982 0.170532,-0.22221 0.03617,-0.12919 0.06718,-0.62528 0.03617,-0.58911 0.03617,-1.23507 0,-0.35656 -0.05684,-0.46508 -0.05168,-0.11369 -0.310058,-0.27389 -0.222208,-0.13952 -0.222208,-0.34106 0,-0.20671 0.180867,-0.3359 0.180867,-0.13435 0.744138,-0.33589 0.496092,-0.1757 0.956011,-0.29456 0.459919,-0.12402 0.630451,-0.12402 0.155028,0 0.258381,0.11369 0.10852,0.11369 0.10852,0.26871 0,0.0155 -0.0052,0.12919 -0.0052,0.0413 -0.0052,0.0724 0,0.24805 0.206705,0.24805 0.124023,0 0.263549,-0.19637 0.444416,-0.640788 1.291907,-0.640788 0.651121,0 1.116207,0.341068 0.32556,0.24287 0.454751,0.5736 0.129191,0.32556 0.160197,0.96118 z"
           style="font-style:normal;font-variant:normal;font-weight:normal;font-stretch:normal;font-size:10.5833px;font-family:'Cooper Black';-inkscape-font-specification:'Cooper Black, Normal';font-variant-ligatures:normal;font-variant-caps:normal;font-variant-numeric:normal;font-variant-east-asian:normal;stroke-width:0.46955233;fill:none;stroke:#00ffff;stroke-miterlimit:4;stroke-dasharray:none"
           id="path877" />
        <path
           d="m 99.631421,100.19138 v 2.80085 q 0,0.89917 0.594279,0.89917 0.14986,0 0.29455,-0.0827 0.1447,-0.0878 0.20154,-0.21187 0.11369,-0.24805 0.11369,-1.10587 0,-0.8475 -0.0568,-1.15755 -0.0207,-0.12919 -0.0723,-0.18604 -0.0517,-0.062 -0.19637,-0.13952 -0.29456,-0.15503 -0.29456,-0.39274 0,-0.3204 0.50643,-0.44442 0.96118,-0.23771 1.89652,-0.23771 0.52193,0 0.52193,0.55294 0,0.0568 -0.005,0.23254 -0.0103,0.24805 -0.0155,0.60461 v 2.27892 q 0,0.1757 0.29972,0.3204 0.25321,0.12402 0.25321,0.36173 0,0.46509 -1.1007,0.7183 -0.64595,0.14986 -1.25057,0.14986 -0.24804,0 -0.34106,-0.0568 -0.0879,-0.0568 -0.10335,-0.22221 -0.0258,-0.32039 -0.19637,-0.32039 -0.062,0 -0.11369,0.031 -0.0517,0.0258 -0.31522,0.20671 -0.521934,0.35657 -1.121379,0.35657 -0.992184,0 -1.400427,-0.57361 -0.346231,-0.48059 -0.346231,-1.61747 0,-0.42374 0.0052,-0.72347 0,-0.1757 0,-0.23771 0,-0.44441 -0.08268,-0.65112 -0.07751,-0.21187 -0.289387,-0.33073 -0.201538,-0.10335 -0.258382,-0.16536 -0.05168,-0.062 -0.05168,-0.17053 0,-0.39274 0.594277,-0.52193 1.012855,-0.22221 2.02571,-0.22221 0.30489,0 0.30489,0.25838 z"
           style="font-style:normal;font-variant:normal;font-weight:normal;font-stretch:normal;font-size:10.5833px;font-family:'Cooper Black';-inkscape-font-specification:'Cooper Black, Normal';font-variant-ligatures:normal;font-variant-caps:normal;font-variant-numeric:normal;font-variant-east-asian:normal;stroke-width:0.46955233;fill:none;stroke:#00ffff;stroke-miterlimit:4;stroke-dasharray:none"
           id="path879" />
        <path
           d="m 106.38551,99.927832 q 0.27389,0 0.33073,0.07752 0.062,0.0775 0.10852,0.49609 0.0258,0.22737 0.1602,0.22737 0.10335,0 0.19637,-0.14986 0.41341,-0.645922 1.08003,-0.645922 0.47025,0 0.76998,0.304862 0.14469,0.14986 0.23771,0.38757 0.093,0.23255 0.093,0.44959 0,0.24287 -0.11368,0.50126 -0.11369,0.25321 -0.29456,0.41857 -0.33073,0.31523 -0.81132,0.31523 -0.26354,0 -0.44441,-0.093 -0.1757,-0.093 -0.46509,-0.37724 -0.10852,-0.10852 -0.20154,-0.10852 -0.14469,0 -0.1912,0.16537 -0.0413,0.16019 -0.0413,0.68212 0,0.78032 0.0569,1.06454 0.0362,0.15502 0.0982,0.21704 0.0672,0.0568 0.27905,0.11885 0.46509,0.13953 0.46509,0.48576 0,0.21187 -0.14986,0.37207 -0.14986,0.15503 -0.39791,0.2067 -0.49609,0.10336 -1.45727,0.10336 -0.91467,0 -1.39009,-0.1602 -0.42375,-0.14469 -0.42375,-0.50126 0,-0.26872 0.31006,-0.48059 0.14986,-0.0982 0.20671,-0.1757 0.0568,-0.0827 0.0775,-0.22221 0.0827,-0.47025 0.0827,-1.74149 0,-0.23254 -0.0517,-0.33073 -0.0517,-0.10335 -0.20671,-0.16536 -0.3669,-0.14469 -0.3669,-0.41858 0,-0.24804 0.25321,-0.42374 0.25322,-0.18087 0.84749,-0.35657 0.79582,-0.237682 1.35392,-0.24285 z"
           style="font-style:normal;font-variant:normal;font-weight:normal;font-stretch:normal;font-size:10.5833px;font-family:'Cooper Black';-inkscape-font-specification:'Cooper Black, Normal';font-variant-ligatures:normal;font-variant-caps:normal;font-variant-numeric:normal;font-variant-east-asian:normal;stroke-width:0.46955233;fill:none;stroke:#00ffff;stroke-miterlimit:4;stroke-dasharray:none"
           id="path881" />
      </g>
      <path
         id="path1164"
         style="fill:none;fill-rule:evenodd;stroke:#00ffff;stroke-width:0.46955233;stroke-miterlimit:4;stroke-dasharray:none"
         d="m 101.22065,87.428741 c 0.52915,0.715558 -0.70349,1.066317 -1.1893,0.879486 -1.316522,-0.506302 -1.274218,-2.283382 -0.569671,-3.258092 1.260271,-1.743526 3.831111,-1.584886 5.326881,-0.25985 2.19509,1.944543 1.9083,5.401122 -0.05,7.395669 -2.61006,2.658417 -6.979201,2.237355 -9.464456,-0.359785 -2.526318,-2.640053 -2.716851,-6.779359 -0.780672,-9.808439" />
      <path
         id="path1166"
         style="fill:none;fill-rule:evenodd;stroke:#00ffff;stroke-width:0.46955233;stroke-miterlimit:4;stroke-dasharray:none"
         d="m 120.04961,94.504593 c 1.19264,0.3258 0.14923,1.768403 -0.54151,1.982258 -1.87186,0.579534 -3.35369,-1.39591 -3.42301,-3.065262 -0.124,-2.986079 2.8176,-5.02348 5.58902,-4.863771 4.06718,0.234379 6.72632,4.252637 6.30453,8.112782 -0.56218,5.14497 -5.69163,8.44226 -10.63654,7.74528 -6.22266,-0.87707 -10.16477,-7.132325 -9.18604,-13.160298 0.4064,-2.503003 1.5964,-4.846711 3.34198,-6.681838" />
      <path
         id="path1168"
         style="fill:none;fill-rule:evenodd;stroke:#00ffff;stroke-width:0.46955233;stroke-miterlimit:4;stroke-dasharray:none"
         d="m 82.368107,91.470878 c 1.291025,-1.942756 4.070912,-1.953674 5.785976,-0.598358 2.442924,1.930502 2.388653,5.607667 0.438878,7.860167 -2.55498,2.951673 -7.150614,2.828813 -9.934358,0.279399 C 76.780066,97.291684 75.868932,94.70687 76.1281,92.186003" />
      <path
         id="path1982"
         style="opacity:1;fill:none;fill-opacity:0;stroke:#00ffff;stroke-width:0.46955233;stroke-miterlimit:4;stroke-dasharray:none"
         d="M 138.89458,96.107535 A 42.38728,41.802624 0 0 1 124.70585,143.81123 42.38728,41.802624 0 0 1 74.300451,144.40148 42.38728,41.802624 0 0 1 58.967189,97.043486" />
      <path
         id="path2000"
         style="fill:none;fill-rule:evenodd;stroke:#00ffff;stroke-width:0.46955233;stroke-miterlimit:4;stroke-dasharray:none"
         d="m 101.05589,126.2746 c -0.74183,3.31968 -4.84086,0.63784 -5.517531,-1.23298 -1.833737,-5.06979 3.404554,-9.39664 7.983481,-9.80209 8.19064,-0.72525 14.16874,7.09677 14.08665,14.73399 -0.12047,11.20794 -10.82141,19.03341 -21.4845,18.37121 C 83.582692,147.5659 74.134036,136.58772 73.396962,124.36707" />
    </g>
    <g
       id="g3251">
      <rect
         style="fill:#00ffff;fill-opacity:0;stroke:#00ffff;stroke-width:0.264999;stroke-miterlimit:4;stroke-dasharray:none;stroke-opacity:1"
         id="rect3085"
         width="15"
         height="10"
         x="6.1842132"
         y="44.366283"
         rx="0" />
      <path
         style="fill:#00ffff;stroke:#00ffff;stroke-width:0.264583px;stroke-linecap:butt;stroke-linejoin:miter;stroke-opacity:1"
         d="m 6.1842131,44.366283 c 7.4752409,4.951274 7.5494769,4.976021 7.5494769,4.976021"
         id="path3119" />
      <path
         style="fill:#00ffff;stroke:#00ffff;stroke-width:0.264583px;stroke-linecap:butt;stroke-linejoin:miter;stroke-opacity:1"
         d="M 21.184213,44.366283 C 13.73369,49.342304 13.73369,49.342304 13.73369,49.342304"
         id="path3131" />
      <path
         style="fill:#00ffff;stroke:#00ffff;stroke-width:0.264583px;stroke-linecap:butt;stroke-linejoin:miter;stroke-opacity:1"
         d="m 13.73369,49.342304 v 0"
         id="path3145" />
      <path
         style="fill:#00ffff;stroke:#00ffff;stroke-width:0.264583px;stroke-linecap:butt;stroke-linejoin:miter;stroke-opacity:1"
         d="M 6.1842131,54.366284 C 12.668285,48.573425 12.668285,48.538431 12.668285,48.538431"
         id="path3196" />
      <path
         style="fill:#00ffff;stroke:#00ffff;stroke-width:0.264583px;stroke-linecap:butt;stroke-linejoin:miter;stroke-opacity:1"
         d="m 15.187944,48.293464 c 5.996269,6.07282 5.996269,6.07282 5.996269,6.07282"
         id="path3198" />
    </g>
    <g
       aria-label="FinnurG04@gmail.com"
       id="text3204"
       style="font-style:normal;font-variant:normal;font-weight:normal;font-stretch:normal;font-size:4.23333px;line-height:1.25;font-family:'Cooper Black';-inkscape-font-specification:'Cooper Black, Normal';font-variant-ligatures:normal;font-variant-caps:normal;font-variant-numeric:normal;font-variant-east-asian:normal;fill:#ffcc00;fill-opacity:1;stroke:none;stroke-width:0.264583"
       transform="translate(0.48993369,0.20997158)">
      <path
         d="m 26.374482,47.99746 q -0.142627,0 -0.1757,0.07235 -0.02481,0.05374 -0.04754,0.210839 -0.02067,0.157096 -0.02067,0.285254 0,0.07648 0.04961,0.10542 0.04961,0.02894 0.186035,0.02894 0.09095,0 0.134359,-0.03307 0.04341,-0.03307 0.05995,-0.111621 0.04754,-0.225309 0.194303,-0.225309 0.252181,0 0.252181,0.60358 0,0.382405 -0.109554,0.562239 -0.06615,0.109554 -0.181901,0.109554 -0.121957,0 -0.14056,-0.163298 -0.01033,-0.105419 -0.02687,-0.148828 -0.01447,-0.04341 -0.05788,-0.08268 -0.06821,-0.06408 -0.198438,-0.06408 -0.09302,0 -0.12609,0.03307 -0.03307,0.03307 -0.02894,0.126091 0,0.01654 -0.0021,0.192236 0,0.357601 0.07441,0.436149 0.02481,0.03101 0.04961,0.04134 0.02687,0.0083 0.136426,0.0248 0.05374,0.0083 0.09095,0.05581 0.03721,0.04754 0.03721,0.109554 0,0.159163 -0.186035,0.204638 -0.268718,0.06408 -0.754476,0.06408 -0.425813,0 -0.587044,-0.04961 -0.07235,-0.02274 -0.117822,-0.08268 -0.04547,-0.05994 -0.04547,-0.132292 0,-0.09095 0.06615,-0.146761 0.01654,-0.0124 0.113688,-0.05168 0.115755,-0.04548 0.138493,-0.21084 0.03721,-0.254248 0.03721,-1.159618 0,-0.390674 -0.02687,-0.506429 -0.02687,-0.115755 -0.130225,-0.16123 -0.103352,-0.04547 -0.136425,-0.07855 -0.03101,-0.03514 -0.03101,-0.09922 0,-0.09095 0.08888,-0.150895 0.08888,-0.06201 0.219108,-0.06201 0.08268,0 0.241846,0.0124 0.33693,0.02687 0.806151,0.02687 0.750342,0 1.010791,-0.04134 0.03514,-0.0041 0.05374,-0.0041 0.07235,0 0.138493,0.08268 0.181901,0.231511 0.181901,0.51263 0,0.128158 -0.05994,0.204639 -0.05994,0.07648 -0.157096,0.07648 -0.07235,0 -0.109554,-0.02894 -0.03721,-0.02894 -0.190169,-0.202571 -0.09302,-0.107487 -0.225309,-0.14056 -0.130225,-0.03307 -0.487825,-0.04341 z"
         style="font-style:normal;font-variant:normal;font-weight:normal;font-stretch:normal;font-size:4.23333px;font-family:'Cooper Black';-inkscape-font-specification:'Cooper Black, Normal';font-variant-ligatures:normal;font-variant-caps:normal;font-variant-numeric:normal;font-variant-east-asian:normal;fill:#ffcc00;stroke-width:0.264583"
         id="path3206" />
      <path
         d="m 28.848747,48.477017 v 1.200959 q 0,0.142627 0.02481,0.208772 0.02687,0.06615 0.105419,0.121957 0.06408,0.04548 0.08475,0.07855 0.02274,0.03101 0.02274,0.08062 0,0.26665 -0.675927,0.26665 -0.363802,0 -0.576708,-0.05788 -0.07235,-0.02067 -0.117823,-0.07235 -0.04341,-0.05168 -0.04341,-0.117823 0,-0.05581 0.02274,-0.08682 0.02274,-0.03101 0.115755,-0.09922 0.06408,-0.04754 0.09095,-0.155029 0.02687,-0.107487 0.02687,-0.320393 0,-0.06821 -0.01033,-0.254248 -0.0083,-0.188102 -0.0124,-0.219108 -0.0124,-0.08475 -0.115756,-0.130225 -0.128157,-0.05581 -0.128157,-0.165364 0,-0.130224 0.167432,-0.194303 0.23151,-0.08888 0.496093,-0.150895 0.264583,-0.06201 0.409277,-0.06201 0.113688,0 0.113688,0.128158 z M 28.43947,47.571646 q 0.179834,0 0.285254,0.06821 0.105419,0.06615 0.105419,0.179834 0,0.159163 -0.159163,0.252181 -0.252181,0.146761 -0.609781,0.146761 -0.150895,0 -0.239779,-0.05788 -0.119889,-0.07441 -0.119889,-0.206706 0,-0.177766 0.254248,-0.279052 0.258382,-0.103353 0.483691,-0.103353 z"
         style="font-style:normal;font-variant:normal;font-weight:normal;font-stretch:normal;font-size:4.23333px;font-family:'Cooper Black';-inkscape-font-specification:'Cooper Black, Normal';font-variant-ligatures:normal;font-variant-caps:normal;font-variant-numeric:normal;font-variant-east-asian:normal;fill:#ffcc00;stroke-width:0.264583"
         id="path3208" />
      <path
         d="m 31.715753,49.097133 0.02894,0.727604 q 0.0041,0.08268 0.02481,0.121956 0.02274,0.03927 0.128157,0.150895 0.03101,0.03307 0.03101,0.09302 0,0.136425 -0.163298,0.190169 -0.163297,0.05374 -0.582909,0.05374 -0.285254,0 -0.403076,-0.04961 -0.121956,-0.05168 -0.121956,-0.167432 0,-0.04134 0.0124,-0.05994 0.0124,-0.02067 0.08268,-0.09715 0.08268,-0.08682 0.08268,-0.578775 0,-0.285254 -0.06615,-0.42168 -0.05374,-0.109554 -0.198438,-0.109554 -0.138492,0 -0.190169,0.08888 -0.05168,0.08888 -0.05168,0.32246 v 0.409277 q 0,0.121957 0.01447,0.167432 0.01654,0.04547 0.103353,0.1757 0.02274,0.03721 0.02274,0.08475 0,0.121956 -0.169499,0.179834 -0.169499,0.05788 -0.529166,0.05788 -0.574642,0 -0.574642,-0.237711 0,-0.04961 0.01654,-0.07441 0.0186,-0.02687 0.08475,-0.07441 0.05374,-0.03927 0.06821,-0.08888 0.01447,-0.05168 0.02687,-0.250113 0.01447,-0.235645 0.01447,-0.494027 0,-0.142626 -0.02274,-0.186035 -0.02067,-0.04548 -0.124023,-0.109554 -0.08888,-0.05581 -0.08888,-0.136425 0,-0.08268 0.07235,-0.134359 0.07235,-0.05374 0.297656,-0.134358 0.198437,-0.07028 0.382405,-0.117823 0.183968,-0.04961 0.252181,-0.04961 0.06201,0 0.103352,0.04548 0.04341,0.04548 0.04341,0.107487 0,0.0062 -0.0021,0.05168 -0.0021,0.01654 -0.0021,0.02894 0,0.09922 0.08268,0.09922 0.04961,0 0.10542,-0.07855 0.177766,-0.256315 0.516763,-0.256315 0.260449,0 0.446484,0.136426 0.130225,0.09715 0.181901,0.229443 0.05168,0.130224 0.06408,0.384472 z"
         style="font-style:normal;font-variant:normal;font-weight:normal;font-stretch:normal;font-size:4.23333px;font-family:'Cooper Black';-inkscape-font-specification:'Cooper Black, Normal';font-variant-ligatures:normal;font-variant-caps:normal;font-variant-numeric:normal;font-variant-east-asian:normal;fill:#ffcc00;stroke-width:0.264583"
         id="path3210" />
      <path
         d="m 34.555888,49.097133 0.02894,0.727604 q 0.0041,0.08268 0.02481,0.121956 0.02274,0.03927 0.128158,0.150895 0.03101,0.03307 0.03101,0.09302 0,0.136425 -0.163297,0.190169 -0.163297,0.05374 -0.58291,0.05374 -0.285253,0 -0.403075,-0.04961 -0.121957,-0.05168 -0.121957,-0.167432 0,-0.04134 0.0124,-0.05994 0.0124,-0.02067 0.08268,-0.09715 0.08268,-0.08682 0.08268,-0.578775 0,-0.285254 -0.06615,-0.42168 -0.05374,-0.109554 -0.198437,-0.109554 -0.138493,0 -0.190169,0.08888 -0.05168,0.08888 -0.05168,0.32246 v 0.409277 q 0,0.121957 0.01447,0.167432 0.01654,0.04547 0.103353,0.1757 0.02274,0.03721 0.02274,0.08475 0,0.121956 -0.169498,0.179834 -0.169499,0.05788 -0.529167,0.05788 -0.574641,0 -0.574641,-0.237711 0,-0.04961 0.01654,-0.07441 0.0186,-0.02687 0.08475,-0.07441 0.05374,-0.03927 0.06821,-0.08888 0.01447,-0.05168 0.02687,-0.250113 0.01447,-0.235645 0.01447,-0.494027 0,-0.142626 -0.02274,-0.186035 -0.02067,-0.04548 -0.124023,-0.109554 -0.08888,-0.05581 -0.08888,-0.136425 0,-0.08268 0.07235,-0.134359 0.07235,-0.05374 0.297656,-0.134358 0.198438,-0.07028 0.382406,-0.117823 0.183967,-0.04961 0.25218,-0.04961 0.06201,0 0.103353,0.04548 0.04341,0.04548 0.04341,0.107487 0,0.0062 -0.0021,0.05168 -0.0021,0.01654 -0.0021,0.02894 0,0.09922 0.08268,0.09922 0.04961,0 0.10542,-0.07855 0.177767,-0.256315 0.516764,-0.256315 0.260449,0 0.446484,0.136426 0.130225,0.09715 0.181901,0.229443 0.05168,0.130224 0.06408,0.384472 z"
         style="font-style:normal;font-variant:normal;font-weight:normal;font-stretch:normal;font-size:4.23333px;font-family:'Cooper Black';-inkscape-font-specification:'Cooper Black, Normal';font-variant-ligatures:normal;font-variant-caps:normal;font-variant-numeric:normal;font-variant-east-asian:normal;fill:#ffcc00;stroke-width:0.264583"
         id="path3212" />
      <path
         d="m 36.021429,48.452212 v 1.120344 q 0,0.359668 0.237712,0.359668 0.05994,0 0.117822,-0.03307 0.05788,-0.03514 0.08061,-0.08475 0.04548,-0.09922 0.04548,-0.442349 0,-0.338998 -0.02274,-0.463021 -0.0083,-0.05168 -0.02894,-0.07441 -0.02067,-0.02481 -0.07855,-0.05581 -0.117822,-0.06201 -0.117822,-0.157097 0,-0.128157 0.202571,-0.177766 0.384472,-0.09509 0.75861,-0.09509 0.208772,0 0.208772,0.221175 0,0.02274 -0.0021,0.09302 -0.0041,0.09922 -0.0062,0.241845 v 0.911572 q 0,0.07028 0.119889,0.128157 0.101286,0.04961 0.101286,0.144694 0,0.186035 -0.440283,0.287321 -0.258382,0.05994 -0.500227,0.05994 -0.09922,0 -0.136426,-0.02274 -0.03514,-0.02274 -0.04134,-0.08888 -0.01033,-0.128157 -0.07855,-0.128157 -0.02481,0 -0.04548,0.0124 -0.02067,0.01033 -0.12609,0.08268 -0.208773,0.142627 -0.448551,0.142627 -0.396875,0 -0.560172,-0.229443 -0.138493,-0.192236 -0.138493,-0.646988 0,-0.169499 0.0021,-0.289388 0,-0.07028 0,-0.09508 0,-0.177767 -0.03307,-0.260449 -0.03101,-0.08475 -0.115755,-0.132291 -0.08062,-0.04134 -0.103352,-0.06615 -0.02067,-0.02481 -0.02067,-0.06821 0,-0.157096 0.237711,-0.208773 0.405143,-0.08888 0.810286,-0.08888 0.121956,0 0.121956,0.103353 z"
         style="font-style:normal;font-variant:normal;font-weight:normal;font-stretch:normal;font-size:4.23333px;font-family:'Cooper Black';-inkscape-font-specification:'Cooper Black, Normal';font-variant-ligatures:normal;font-variant-caps:normal;font-variant-numeric:normal;font-variant-east-asian:normal;fill:#ffcc00;stroke-width:0.264583"
         id="path3214" />
      <path
         d="m 38.723072,48.346792 q 0.109554,0 0.132291,0.03101 0.02481,0.03101 0.04341,0.198437 0.01033,0.09095 0.06408,0.09095 0.04134,0 0.07855,-0.05994 0.165365,-0.258382 0.432015,-0.258382 0.188102,0 0.307991,0.121956 0.05788,0.05994 0.09508,0.15503 0.03721,0.09302 0.03721,0.179833 0,0.09715 -0.04548,0.200505 -0.04548,0.101285 -0.117823,0.167431 -0.132291,0.126091 -0.324527,0.126091 -0.10542,0 -0.177767,-0.03721 -0.07028,-0.03721 -0.186035,-0.150895 -0.04341,-0.04341 -0.08062,-0.04341 -0.05788,0 -0.07648,0.06615 -0.01654,0.06408 -0.01654,0.272852 0,0.312125 0.02274,0.425813 0.01447,0.06201 0.03927,0.08682 0.02687,0.02274 0.111621,0.04754 0.186035,0.05581 0.186035,0.194303 0,0.08475 -0.05994,0.148828 -0.05994,0.06201 -0.159163,0.08268 -0.198437,0.04134 -0.58291,0.04134 -0.365868,0 -0.556038,-0.06408 -0.169498,-0.05788 -0.169498,-0.200504 0,-0.107487 0.124023,-0.192236 0.05995,-0.03927 0.08268,-0.07028 0.02274,-0.03307 0.03101,-0.08888 0.03307,-0.188102 0.03307,-0.696598 0,-0.09302 -0.02067,-0.132292 -0.02067,-0.04134 -0.08268,-0.06614 -0.146761,-0.05788 -0.146761,-0.167432 0,-0.09922 0.101286,-0.169499 0.101286,-0.07235 0.338997,-0.142626 0.318327,-0.09509 0.541569,-0.09715 z"
         style="font-style:normal;font-variant:normal;font-weight:normal;font-stretch:normal;font-size:4.23333px;font-family:'Cooper Black';-inkscape-font-specification:'Cooper Black, Normal';font-variant-ligatures:normal;font-variant-caps:normal;font-variant-numeric:normal;font-variant-east-asian:normal;fill:#ffcc00;stroke-width:0.264583"
         id="path3216" />
      <path
         d="m 41.614883,47.513769 q 0.270784,0 0.510562,0.07648 0.107487,0.03514 0.146761,0.03514 0.04134,0 0.173633,-0.04754 0.04341,-0.01447 0.08888,-0.01447 0.115755,0 0.221175,0.136426 0.169499,0.219108 0.169499,0.479557 0,0.177766 -0.09095,0.28732 -0.08888,0.109554 -0.235644,0.109554 -0.119889,0 -0.235644,-0.08682 -0.03514,-0.02687 -0.171566,-0.194303 -0.227376,-0.279053 -0.522965,-0.279053 -0.268717,0 -0.427881,0.19637 -0.157096,0.196371 -0.157096,0.529167 0,0.494026 0.252181,0.841291 0.09508,0.126091 0.227376,0.202572 0.132292,0.07441 0.262516,0.07441 0.107487,0 0.1757,-0.07028 0.07028,-0.07235 0.07028,-0.183968 0,-0.09922 -0.05788,-0.14056 -0.02274,-0.01654 -0.04341,-0.0186 -0.0186,-0.0041 -0.117822,-0.0041 -0.08888,0 -0.148828,-0.05581 -0.05788,-0.05788 -0.05788,-0.144694 0,-0.171566 0.227376,-0.243912 0.250114,-0.07855 0.576709,-0.07855 0.349332,0 0.587044,0.07235 0.225309,0.07028 0.225309,0.254248 0,0.07441 -0.05168,0.130225 -0.05168,0.05374 -0.134358,0.06408 -0.07235,0.01034 -0.09508,0.03307 -0.02067,0.02067 -0.04341,0.10542 -0.08888,0.328662 -0.347265,0.549837 -0.177767,0.150895 -0.429948,0.235644 -0.250114,0.08475 -0.527099,0.08475 -0.452685,0 -0.830956,-0.208773 -0.388607,-0.212907 -0.591178,-0.595312 -0.169499,-0.318327 -0.169499,-0.68833 0,-0.374137 0.202572,-0.711067 0.214973,-0.361734 0.601513,-0.558105 0.33693,-0.173632 0.768945,-0.173632 z"
         style="font-style:normal;font-variant:normal;font-weight:normal;font-stretch:normal;font-size:4.23333px;font-family:'Cooper Black';-inkscape-font-specification:'Cooper Black, Normal';font-variant-ligatures:normal;font-variant-caps:normal;font-variant-numeric:normal;font-variant-east-asian:normal;fill:#ffcc00;stroke-width:0.264583"
         id="path3218" />
      <path
         d="m 44.529431,48.007795 q 0.283187,0 0.545703,0.138493 0.355533,0.186035 0.531233,0.553971 0.130224,0.268717 0.130224,0.572574 0,0.553971 -0.423746,0.907437 -0.324528,0.268718 -0.740006,0.268718 -0.458886,0 -0.781347,-0.299724 -0.382405,-0.353466 -0.382405,-0.944644 0,-0.576708 0.349332,-0.90537 0.307992,-0.291455 0.771012,-0.291455 z m -0.04754,0.615982 q -0.192236,0 -0.192236,0.326595 0,0.427881 0.163297,0.768945 0.06408,0.132291 0.171566,0.132291 0.188102,0 0.188102,-0.332795 0,-0.186035 -0.04134,-0.396875 -0.03927,-0.212907 -0.101286,-0.345198 -0.06821,-0.146761 -0.188103,-0.152963 z"
         style="font-style:normal;font-variant:normal;font-weight:normal;font-stretch:normal;font-size:4.23333px;font-family:'Cooper Black';-inkscape-font-specification:'Cooper Black, Normal';font-variant-ligatures:normal;font-variant-caps:normal;font-variant-numeric:normal;font-variant-east-asian:normal;fill:#ffcc00;stroke-width:0.264583"
         id="path3220" />
      <path
         d="m 47.96901,48.086343 v 1.428335 q 0,0.06408 0.01654,0.08888 0.0186,0.02274 0.06615,0.02274 h 0.08682 q 0.09715,-0.0021 0.101286,0.117823 v 0.419612 q 0,0.109554 -0.111621,0.124023 -0.07235,0.0083 -0.09095,0.02687 -0.0186,0.0186 -0.0186,0.08888 v 0.243913 q 0.0083,0.130224 -0.119889,0.136426 h -0.706933 q -0.07441,0 -0.09715,-0.02687 -0.02274,-0.02481 -0.02274,-0.109554 v -0.212907 q 0,-0.08682 -0.03307,-0.119889 -0.03307,-0.03514 -0.115755,-0.03514 h -0.806152 q -0.144694,0 -0.204639,-0.05994 -0.05788,-0.06201 -0.05788,-0.210839 0,-0.198438 0.04754,-0.310059 0.05788,-0.138492 0.332796,-0.467154 l 0.525032,-0.630452 q 0.394808,-0.473356 0.58291,-0.60358 0.08475,-0.05788 0.204638,-0.09508 0.121957,-0.03721 0.227376,-0.03721 0.103353,0 0.148828,0.05168 0.04548,0.05168 0.04548,0.169499 z m -0.868164,1.072802 v -0.101286 q 0,-0.186035 -0.103352,-0.186035 -0.07855,0 -0.146761,0.08475 l -0.318327,0.390674 q -0.138493,0.171566 -0.138493,0.24598 0,0.05374 0.05788,0.07028 0.05788,0.01447 0.287321,0.02067 l 0.163297,0.0021 q 0.10542,0 0.142627,-0.02274 0.03721,-0.0248 0.04341,-0.09508 0.0124,-0.113688 0.0124,-0.409277 z"
         style="font-style:normal;font-variant:normal;font-weight:normal;font-stretch:normal;font-size:4.23333px;font-family:'Cooper Black';-inkscape-font-specification:'Cooper Black, Normal';font-variant-ligatures:normal;font-variant-caps:normal;font-variant-numeric:normal;font-variant-east-asian:normal;fill:#ffcc00;stroke-width:0.264583"
         id="path3222" />
      <path
         d="m 50.368863,47.515836 q 0.570507,0 0.909504,0.314192 0.167432,0.152962 0.262516,0.380338 0.08888,0.214974 0.08888,0.434082 0,0.328662 -0.183968,0.61805 -0.198438,0.314192 -0.587044,0.450618 -0.198437,0.07028 -0.37207,0.07028 -0.150895,0 -0.227376,-0.05374 -0.07441,-0.05374 -0.107487,-0.186035 -0.01034,-0.03927 -0.03721,-0.03927 -0.03101,0 -0.08062,0.04961 -0.214974,0.212907 -0.429948,0.212907 -0.190169,0 -0.305924,-0.130224 -0.113688,-0.130225 -0.113688,-0.345199 0,-0.380338 0.237711,-0.704866 0.132292,-0.1819 0.299723,-0.283186 0.167432,-0.103353 0.332796,-0.103353 0.121957,0 0.274919,0.09095 0.04961,0.03101 0.07441,0.03101 0.02274,0 0.06201,-0.02067 0.204639,-0.09922 0.324528,-0.09922 0.146761,0 0.146761,0.121956 0,0.07028 -0.03101,0.19017 -0.146761,0.564306 -0.146761,0.733804 0,0.07441 0.07235,0.07441 0.09922,0 0.223242,-0.124023 0.103353,-0.103353 0.163298,-0.258382 0.05994,-0.155029 0.05994,-0.318327 0,-0.328661 -0.212907,-0.541568 -0.248046,-0.248047 -0.723469,-0.248047 -0.632519,0 -1.056265,0.415478 -0.254248,0.252181 -0.384473,0.628385 -0.08475,0.239779 -0.08475,0.47749 0,0.456819 0.345198,0.649056 0.239779,0.132291 0.580843,0.132291 0.42788,0 0.806152,-0.177767 0.09715,-0.04548 0.16123,-0.04548 0.05581,0 0.09508,0.03514 0.03927,0.03307 0.03927,0.08268 0,0.09508 -0.132292,0.183968 -0.349332,0.235645 -0.944644,0.235645 -0.556038,0 -0.8847,-0.227377 -0.233577,-0.163297 -0.341064,-0.434081 -0.08062,-0.202572 -0.08062,-0.436149 0,-0.473356 0.258382,-0.91984 0.320394,-0.553971 0.905371,-0.783414 0.332796,-0.132291 0.74414,-0.132291 z m -0.14056,1.041796 q -0.06615,0 -0.169499,0.144694 -0.07235,0.101285 -0.121956,0.241845 -0.04961,0.138493 -0.04961,0.241846 0,0.09508 0.05374,0.09508 0.05788,0 0.14056,-0.12609 0.08062,-0.124024 0.136426,-0.272852 0.05581,-0.148828 0.05581,-0.243912 0,-0.08062 -0.04548,-0.08062 z"
         style="font-style:normal;font-variant:normal;font-weight:normal;font-stretch:normal;font-size:4.23333px;font-family:'Cooper Black';-inkscape-font-specification:'Cooper Black, Normal';font-variant-ligatures:normal;font-variant-caps:normal;font-variant-numeric:normal;font-variant-east-asian:normal;fill:#ffcc00;stroke-width:0.264583"
         id="path3224" />
      <path
         d="m 54.004813,48.222769 q 0.05168,0 0.09095,0.05994 0.03927,0.05788 0.03927,0.136426 0,0.08475 -0.05374,0.192236 -0.05168,0.107487 -0.12609,0.171566 -0.04754,0.04134 -0.04754,0.06615 0,0.0062 0.0041,0.04961 0.0062,0.04341 0.0062,0.07855 0,0.24598 -0.165365,0.413411 -0.148828,0.148828 -0.384472,0.23151 -0.233577,0.08268 -0.514697,0.08268 -0.06821,0 -0.134359,-0.0083 -0.05374,-0.0062 -0.08268,-0.0062 -0.109554,0 -0.109554,0.109554 0,0.07028 0.07028,0.111621 0.07235,0.03927 0.194303,0.03927 0.08268,0 0.243913,-0.02274 0.338997,-0.04754 0.500227,-0.04754 0.243913,0 0.378272,0.08062 0.107486,0.06201 0.169498,0.173633 0.06408,0.111621 0.06408,0.239779 0,0.208772 -0.152962,0.405142 -0.181901,0.231511 -0.535368,0.343132 -0.276985,0.08682 -0.640787,0.08682 -0.458886,0 -0.74414,-0.14056 -0.132291,-0.06615 -0.21084,-0.173632 -0.07855,-0.107487 -0.07855,-0.223242 0,-0.08062 0.04341,-0.148828 0.04548,-0.06821 0.113689,-0.09715 0.06201,-0.02481 0.06201,-0.05374 0,-0.02274 -0.05168,-0.06614 -0.165365,-0.138493 -0.165365,-0.287321 0,-0.09922 0.07855,-0.204639 0.08062,-0.105419 0.198438,-0.163297 0.04961,-0.0248 0.04961,-0.04961 0,-0.02894 -0.06201,-0.08682 -0.212906,-0.19637 -0.212906,-0.458886 0,-0.138493 0.07441,-0.264583 0.07648,-0.12609 0.210839,-0.214974 0.332796,-0.217041 0.737939,-0.217041 0.161231,0 0.359668,0.04134 0.188102,0.03721 0.258382,0.03721 0.225309,0 0.448551,-0.177766 0.04961,-0.03721 0.07648,-0.03721 z m -1.122411,0.42788 q -0.103353,0 -0.167432,0.07855 -0.06201,0.07855 -0.06201,0.208773 0,0.223242 0.06821,0.357601 0.06821,0.134358 0.179834,0.134358 0.109554,0 0.173633,-0.08268 0.06408,-0.08475 0.06408,-0.225309 0,-0.221175 -0.06821,-0.343131 -0.06615,-0.124024 -0.188102,-0.128158 z m -0.450618,1.881021 q -0.05168,0 -0.05168,0.05994 0,0.121957 0.132292,0.196371 0.132291,0.07648 0.343131,0.07648 0.202572,0 0.31626,-0.05374 0.115755,-0.05374 0.115755,-0.150895 0,-0.05168 -0.04341,-0.08888 -0.04341,-0.03514 -0.107487,-0.03514 -0.03307,0 -0.09509,0.0083 -0.115755,0.0186 -0.258382,0.0186 -0.10542,0 -0.202571,-0.01034 -0.07235,-0.0062 -0.117822,-0.01654 -0.02067,-0.0041 -0.03101,-0.0041 z"
         style="font-style:normal;font-variant:normal;font-weight:normal;font-stretch:normal;font-size:4.23333px;font-family:'Cooper Black';-inkscape-font-specification:'Cooper Black, Normal';font-variant-ligatures:normal;font-variant-caps:normal;font-variant-numeric:normal;font-variant-east-asian:normal;fill:#ffcc00;stroke-width:0.264583"
         id="path3226" />
      <path
         d="m 55.257448,48.348859 q 0.117822,0 0.117822,0.167432 0,0.0021 0,0.03514 -0.0021,0.03307 -0.0021,0.05374 0,0.111621 0.06615,0.111621 0.03514,0 0.109554,-0.08888 0.111621,-0.128158 0.28112,-0.202572 0.169498,-0.07648 0.347265,-0.07648 0.345198,0 0.479557,0.252181 0.05168,0.09302 0.08475,0.09302 0.02274,0 0.107487,-0.08268 0.268717,-0.262516 0.609781,-0.262516 0.266651,0 0.436149,0.146761 0.177767,0.152962 0.177767,0.458886 0,0.06615 -0.0041,0.223242 -0.0041,0.05374 -0.0041,0.324528 0,0.173633 -0.0021,0.243913 -0.0021,0.04341 -0.0021,0.06201 0,0.132292 0.08268,0.231511 0.04961,0.05994 0.05994,0.08062 0.0124,0.0186 0.0124,0.05168 0,0.264583 -0.622184,0.264583 -0.274918,0 -0.444417,-0.06615 -0.167431,-0.06614 -0.167431,-0.173632 0,-0.04134 0.01034,-0.06201 0.0124,-0.02274 0.08061,-0.115755 0.06408,-0.08475 0.06408,-0.564306 0,-0.279053 -0.03927,-0.388607 -0.04547,-0.130224 -0.181901,-0.130224 -0.06821,0 -0.121956,0.04341 -0.05168,0.04134 -0.06821,0.10542 -0.0186,0.07441 -0.02067,0.396875 0.0062,0.347265 0.02067,0.421679 0.01654,0.07441 0.10542,0.206705 0.02067,0.03101 0.02067,0.07855 0,0.245979 -0.642854,0.245979 -0.38654,0 -0.520898,-0.05788 -0.107487,-0.04548 -0.107487,-0.161231 0,-0.05168 0.0124,-0.07235 0.01447,-0.02067 0.09302,-0.09508 0.04547,-0.04341 0.05788,-0.08061 0.01447,-0.03927 0.02067,-0.14056 0.01447,-0.227376 0.01447,-0.458887 0,-0.405142 -0.206705,-0.405142 -0.155029,0 -0.183968,0.173632 -0.02481,0.163298 -0.02481,0.467155 0,0.227376 0.0083,0.297656 0.01034,0.07028 0.05168,0.146761 0.04961,0.08888 0.04961,0.144694 0,0.134358 -0.188102,0.186035 -0.204638,0.05581 -0.450618,0.05581 -0.318327,0 -0.467155,-0.04961 -0.148828,-0.05168 -0.148828,-0.161231 0,-0.04134 0.0186,-0.07028 0.02067,-0.02894 0.09095,-0.09095 0.09302,-0.08475 0.107487,-0.233577 0.02274,-0.256315 0.02274,-0.531233 0,-0.196371 -0.02067,-0.272852 -0.0186,-0.07855 -0.08268,-0.12609 -0.06201,-0.04754 -0.08062,-0.07235 -0.01654,-0.02481 -0.01654,-0.06821 0,-0.138493 0.217041,-0.219108 0.522965,-0.188102 0.783414,-0.190169 z"
         style="font-style:normal;font-variant:normal;font-weight:normal;font-stretch:normal;font-size:4.23333px;font-family:'Cooper Black';-inkscape-font-specification:'Cooper Black, Normal';font-variant-ligatures:normal;font-variant-caps:normal;font-variant-numeric:normal;font-variant-east-asian:normal;fill:#ffcc00;stroke-width:0.264583"
         id="path3228" />
      <path
         d="m 59.517651,48.332323 q 0.359667,0 0.609781,0.181901 0.132292,0.09715 0.183968,0.223242 0.05374,0.124023 0.05374,0.343131 l -0.0041,0.307991 q 0,0.320394 0.04548,0.415478 0.02274,0.04548 0.04341,0.05788 0.02067,0.0124 0.08682,0.02274 0.06615,0.01034 0.06615,0.08682 0,0.09922 -0.08062,0.206705 -0.07855,0.107487 -0.204639,0.179834 -0.155029,0.09095 -0.324528,0.09095 -0.21704,0 -0.343131,-0.148828 -0.04341,-0.05374 -0.08062,-0.05374 -0.04134,0 -0.109554,0.05168 -0.206705,0.150896 -0.469221,0.150896 -0.270785,0 -0.438216,-0.115756 -0.109554,-0.07648 -0.173633,-0.198437 -0.06408,-0.124023 -0.06408,-0.258382 0,-0.214974 0.173633,-0.380338 0.270784,-0.260449 0.810286,-0.262516 0.119889,0 0.150895,-0.02274 0.03101,-0.0248 0.03101,-0.111621 0,-0.219108 -0.04548,-0.316259 -0.04547,-0.09922 -0.148828,-0.09922 -0.06201,0 -0.111621,0.03721 -0.04754,0.03721 -0.119889,0.136426 -0.183968,0.262516 -0.384472,0.262516 -0.101286,0 -0.165365,-0.05995 -0.06408,-0.05994 -0.06408,-0.157096 0,-0.09922 0.07855,-0.198437 0.08061,-0.09922 0.217041,-0.173633 0.374137,-0.198437 0.781347,-0.198437 z m -0.138493,1.196825 q -0.09095,0 -0.159163,0.07441 -0.06615,0.07441 -0.06615,0.177767 0,0.09922 0.04754,0.16123 0.04754,0.05994 0.126091,0.05994 0.165364,0 0.165364,-0.279053 0,-0.113688 -0.02481,-0.152962 -0.02274,-0.03927 -0.08888,-0.04134 z"
         style="font-style:normal;font-variant:normal;font-weight:normal;font-stretch:normal;font-size:4.23333px;font-family:'Cooper Black';-inkscape-font-specification:'Cooper Black, Normal';font-variant-ligatures:normal;font-variant-caps:normal;font-variant-numeric:normal;font-variant-east-asian:normal;fill:#ffcc00;stroke-width:0.264583"
         id="path3230" />
      <path
         d="m 61.886498,48.477017 v 1.200959 q 0,0.142627 0.0248,0.208772 0.02687,0.06615 0.10542,0.121957 0.06408,0.04548 0.08475,0.07855 0.02274,0.03101 0.02274,0.08062 0,0.26665 -0.675927,0.26665 -0.363802,0 -0.576709,-0.05788 -0.07235,-0.02067 -0.117822,-0.07235 -0.04341,-0.05168 -0.04341,-0.117823 0,-0.05581 0.02274,-0.08682 0.02274,-0.03101 0.115755,-0.09922 0.06408,-0.04754 0.09095,-0.155029 0.02687,-0.107487 0.02687,-0.320393 0,-0.06821 -0.01034,-0.254248 -0.0083,-0.188102 -0.0124,-0.219108 -0.0124,-0.08475 -0.115755,-0.130225 -0.128157,-0.05581 -0.128157,-0.165364 0,-0.130224 0.167431,-0.194303 0.23151,-0.08888 0.496094,-0.150895 0.264583,-0.06201 0.409277,-0.06201 0.113688,0 0.113688,0.128158 z m -0.409277,-0.905371 q 0.179833,0 0.285253,0.06821 0.10542,0.06615 0.10542,0.179834 0,0.159163 -0.159163,0.252181 -0.252181,0.146761 -0.609782,0.146761 -0.150895,0 -0.239778,-0.05788 -0.119889,-0.07441 -0.119889,-0.206706 0,-0.177766 0.254248,-0.279052 0.258382,-0.103353 0.483691,-0.103353 z"
         style="font-style:normal;font-variant:normal;font-weight:normal;font-stretch:normal;font-size:4.23333px;font-family:'Cooper Black';-inkscape-font-specification:'Cooper Black, Normal';font-variant-ligatures:normal;font-variant-caps:normal;font-variant-numeric:normal;font-variant-east-asian:normal;fill:#ffcc00;stroke-width:0.264583"
         id="path3232" />
      <path
         d="m 63.426453,48.754002 v 0.663525 q 0,0.440283 0.0124,0.51263 0.01447,0.07235 0.103353,0.111621 0.07648,0.03307 0.101286,0.06201 0.02687,0.02894 0.02687,0.08268 0,0.06821 -0.04961,0.124024 -0.04754,0.05581 -0.128157,0.07855 -0.148828,0.04547 -0.502295,0.04547 -0.398942,0 -0.560172,-0.05994 -0.07441,-0.02687 -0.121956,-0.08268 -0.04754,-0.05788 -0.04754,-0.119889 0,-0.04961 0.02481,-0.07648 0.02687,-0.02687 0.113688,-0.06408 0.08061,-0.03514 0.09922,-0.192236 0.03307,-0.268717 0.03307,-0.76481 0,-0.504362 -0.02894,-0.649056 -0.02894,-0.144694 -0.144694,-0.214974 -0.08682,-0.04961 -0.119889,-0.09302 -0.03101,-0.04547 -0.03101,-0.109554 0,-0.101286 0.09715,-0.1757 0.09715,-0.07648 0.310058,-0.14056 0.142627,-0.04341 0.370003,-0.08268 0.227376,-0.03927 0.330729,-0.03927 0.163297,0 0.163297,0.202572 0,0.06614 -0.02067,0.303857 -0.02687,0.370003 -0.03101,0.677994 z"
         style="font-style:normal;font-variant:normal;font-weight:normal;font-stretch:normal;font-size:4.23333px;font-family:'Cooper Black';-inkscape-font-specification:'Cooper Black, Normal';font-variant-ligatures:normal;font-variant-caps:normal;font-variant-numeric:normal;font-variant-east-asian:normal;fill:#ffcc00;stroke-width:0.264583"
         id="path3234" />
      <path
         d="m 64.350427,49.473337 q 0.19637,0 0.341064,0.136426 0.146761,0.138493 0.146761,0.357601 0,0.204638 -0.146761,0.345198 -0.144694,0.136426 -0.341064,0.136426 -0.19637,0 -0.341064,-0.136426 -0.146761,-0.14056 -0.146761,-0.3514 0,-0.214973 0.146761,-0.351399 0.144694,-0.134359 0.341064,-0.136426 z"
         style="font-style:normal;font-variant:normal;font-weight:normal;font-stretch:normal;font-size:4.23333px;font-family:'Cooper Black';-inkscape-font-specification:'Cooper Black, Normal';font-variant-ligatures:normal;font-variant-caps:normal;font-variant-numeric:normal;font-variant-east-asian:normal;fill:#ffcc00;stroke-width:0.264583"
         id="path3236" />
      <path
         d="m 66.239716,48.33439 q 0.367936,0 0.649056,0.183968 0.26665,0.175699 0.26665,0.436148 0,0.179834 -0.124024,0.291455 -0.115755,0.10542 -0.279052,0.10542 -0.171566,0 -0.258382,-0.124023 -0.02687,-0.03927 -0.07855,-0.200505 -0.05581,-0.173632 -0.212907,-0.173632 -0.113688,0 -0.192236,0.09922 -0.07648,0.09922 -0.07648,0.243913 0,0.248047 0.177767,0.440283 0.144694,0.155029 0.363802,0.155029 0.103352,0 0.173632,-0.01654 0.07028,-0.0186 0.183968,-0.07235 0.02894,-0.01447 0.06408,-0.01447 0.07028,0 0.124023,0.06615 0.05374,0.06615 0.05374,0.155029 0,0.09302 -0.07648,0.19637 -0.07648,0.101286 -0.200505,0.177767 -0.268717,0.165365 -0.634586,0.165365 -0.425813,0 -0.725536,-0.248047 -0.384473,-0.314193 -0.384473,-0.799951 0,-0.467154 0.357601,-0.773078 0.341064,-0.293522 0.828889,-0.293522 z"
         style="font-style:normal;font-variant:normal;font-weight:normal;font-stretch:normal;font-size:4.23333px;font-family:'Cooper Black';-inkscape-font-specification:'Cooper Black, Normal';font-variant-ligatures:normal;font-variant-caps:normal;font-variant-numeric:normal;font-variant-east-asian:normal;fill:#ffcc00;stroke-width:0.264583"
         id="path3238" />
      <path
         d="m 68.569285,48.332323 q 0.378271,0 0.663525,0.19637 0.204638,0.14056 0.328661,0.365869 0.128158,0.235644 0.128158,0.491959 0,0.448551 -0.411344,0.762743 -0.392741,0.299724 -0.899169,0.299724 -0.494027,0 -0.799951,-0.28112 -0.297656,-0.272851 -0.297656,-0.711067 0,-0.487825 0.363802,-0.797884 0.380338,-0.326594 0.923974,-0.326594 z m -0.165365,0.477489 q -0.09095,0 -0.146761,0.06821 -0.05374,0.06615 -0.05374,0.177767 0,0.124023 0.04547,0.338997 0.04754,0.212907 0.111621,0.378271 0.06408,0.169499 0.208773,0.169499 0.183968,0 0.183968,-0.233577 0,-0.173633 -0.04754,-0.394808 -0.04547,-0.221175 -0.111621,-0.359668 -0.06821,-0.140559 -0.190169,-0.144694 z"
         style="font-style:normal;font-variant:normal;font-weight:normal;font-stretch:normal;font-size:4.23333px;font-family:'Cooper Black';-inkscape-font-specification:'Cooper Black, Normal';font-variant-ligatures:normal;font-variant-caps:normal;font-variant-numeric:normal;font-variant-east-asian:normal;fill:#ffcc00;stroke-width:0.264583"
         id="path3240" />
      <path
         d="m 70.840979,48.348859 q 0.117822,0 0.117822,0.167432 0,0.0021 0,0.03514 -0.0021,0.03307 -0.0021,0.05374 0,0.111621 0.06615,0.111621 0.03514,0 0.109554,-0.08888 0.111621,-0.128158 0.281119,-0.202572 0.169499,-0.07648 0.347265,-0.07648 0.345199,0 0.479557,0.252181 0.05168,0.09302 0.08475,0.09302 0.02274,0 0.107487,-0.08268 0.268717,-0.262516 0.609781,-0.262516 0.26665,0 0.436149,0.146761 0.177766,0.152962 0.177766,0.458886 0,0.06615 -0.0041,0.223242 -0.0041,0.05374 -0.0041,0.324528 0,0.173633 -0.0021,0.243913 -0.0021,0.04341 -0.0021,0.06201 0,0.132292 0.08268,0.231511 0.04961,0.05994 0.05994,0.08062 0.0124,0.0186 0.0124,0.05168 0,0.264583 -0.622183,0.264583 -0.274919,0 -0.444417,-0.06615 -0.167432,-0.06614 -0.167432,-0.173632 0,-0.04134 0.01033,-0.06201 0.0124,-0.02274 0.08062,-0.115755 0.06408,-0.08475 0.06408,-0.564306 0,-0.279053 -0.03927,-0.388607 -0.04547,-0.130224 -0.181901,-0.130224 -0.06821,0 -0.121956,0.04341 -0.05168,0.04134 -0.06821,0.10542 -0.0186,0.07441 -0.02067,0.396875 0.0062,0.347265 0.02067,0.421679 0.01654,0.07441 0.10542,0.206705 0.02067,0.03101 0.02067,0.07855 0,0.245979 -0.642855,0.245979 -0.386539,0 -0.520898,-0.05788 -0.107487,-0.04548 -0.107487,-0.161231 0,-0.05168 0.0124,-0.07235 0.01447,-0.02067 0.09302,-0.09508 0.04547,-0.04341 0.05788,-0.08061 0.01447,-0.03927 0.02067,-0.14056 0.01447,-0.227376 0.01447,-0.458887 0,-0.405142 -0.206706,-0.405142 -0.155029,0 -0.183968,0.173632 -0.0248,0.163298 -0.0248,0.467155 0,0.227376 0.0083,0.297656 0.01033,0.07028 0.05168,0.146761 0.04961,0.08888 0.04961,0.144694 0,0.134358 -0.188103,0.186035 -0.204638,0.05581 -0.450618,0.05581 -0.318326,0 -0.467154,-0.04961 -0.148828,-0.05168 -0.148828,-0.161231 0,-0.04134 0.0186,-0.07028 0.02067,-0.02894 0.09095,-0.09095 0.09302,-0.08475 0.107487,-0.233577 0.02274,-0.256315 0.02274,-0.531233 0,-0.196371 -0.02067,-0.272852 -0.0186,-0.07855 -0.08268,-0.12609 -0.06201,-0.04754 -0.08061,-0.07235 -0.01654,-0.02481 -0.01654,-0.06821 0,-0.138493 0.217041,-0.219108 0.522965,-0.188102 0.783414,-0.190169 z"
         style="font-style:normal;font-variant:normal;font-weight:normal;font-stretch:normal;font-size:4.23333px;font-family:'Cooper Black';-inkscape-font-specification:'Cooper Black, Normal';font-variant-ligatures:normal;font-variant-caps:normal;font-variant-numeric:normal;font-variant-east-asian:normal;fill:#ffcc00;stroke-width:0.264583"
         id="path3242" />
    </g>
  </g>
</svg>
