<?xml version="1.0" encoding="UTF-8" standalone="no"?>
<svg
   xmlns:dc="http://purl.org/dc/elements/1.1/"
   xmlns:cc="http://creativecommons.org/ns#"
   xmlns:rdf="http://www.w3.org/1999/02/22-rdf-syntax-ns#"
   xmlns:svg="http://www.w3.org/2000/svg"
   xmlns="http://www.w3.org/2000/svg"
   xmlns:sodipodi="http://sodipodi.sourceforge.net/DTD/sodipodi-0.dtd"
   xmlns:inkscape="http://www.inkscape.org/namespaces/inkscape"
   id="svg8"
   version="1.1"
   viewBox="0 0 210 297"
   height="297mm"
   width="210mm"
   sodipodi:docname="box.svg"
   inkscape:version="1.0.1 (3bc2e813f5, 2020-09-07)">
  <defs
     id="defs2">
    <rect
       x="311.83036"
       y="82.776786"
       width="139.47321"
       height="106.21131"
       id="rect11058" />
    <rect
       x="370.79464"
       y="157.61607"
       width="81.264881"
       height="31.372024"
       id="rect11052" />
  </defs>
  <sodipodi:namedview
     id="base"
     pagecolor="#ffffff"
     bordercolor="#666666"
     borderopacity="1.0"
     inkscape:pageopacity="0.0"
     inkscape:pageshadow="2"
     inkscape:zoom="1.4"
     inkscape:cx="1358.346"
     inkscape:cy="488.4789"
     inkscape:document-units="mm"
     inkscape:current-layer="layer1"
     inkscape:document-rotation="0"
     showgrid="false"
     inkscape:window-width="1920"
     inkscape:window-height="1001"
     inkscape:window-x="-9"
     inkscape:window-y="-9"
     inkscape:window-maximized="1" />
  <metadata
     id="metadata5">
    <rdf:RDF>
      <cc:Work
         rdf:about="">
        <dc:format>image/svg+xml</dc:format>
        <dc:type
           rdf:resource="http://purl.org/dc/dcmitype/StillImage" />
        <dc:title></dc:title>
      </cc:Work>
    </rdf:RDF>
  </metadata>
  <g
     inkscape:label="Layer 1"
     inkscape:groupmode="layer"
     id="layer1">
    <g
       id="panel4057">
      <path
         style="fill:none;stroke:#000000;stroke-width:1"
         d="M 66.2 210.5 L 78.13 210.5 L 78.13 207.4 L 88.32 207.4 L 88.32 210.5 L 100.155 210.5 L 100.155 207.4 L 110.345 207.4 L 110.345 210.5 L 122.18 210.5 L 122.18 207.4 L 132.37 207.4 L 132.37 210.5 L 144.205 210.5 L 144.205 207.4 L 154.395 207.4 L 154.395 210.5 L 166.23 210.5 L 166.23 207.4 L 176.42 207.4 L 176.42 210.5 L 188.255 210.5 L 188.255 207.4 L 198.445 207.4 L 198.445 210.5 L 210.28 210.5 L 210.28 207.4 L 220.47 207.4 L 220.47 210.5 L 232.4 210.5"
         id="path9795" />
      <path
         style="fill:none;stroke:#000000;stroke-width:1"
         d="M 147.75 219.562 L 147.75 229.372 L 150.85 229.372 L 150.85 219.562 L 147.75 219.562"
         id="path9797" />
      <path
         style="fill:none;stroke:#000000;stroke-width:1"
         d="M 147.75 241.628 L 147.75 251.438 L 150.85 251.438 L 150.85 241.628 L 147.75 241.628"
         id="path9799" />
      <path
         style="fill:none;stroke:#000000;stroke-width:1"
         d="M 232.4 210.5 L 232.4 219.562 L 229.3 219.562 L 229.3 229.372 L 232.4 229.372 L 232.4 241.628 L 229.3 241.628 L 229.3 251.438 L 232.4 251.438 L 232.4 260.5"
         id="path9801" />
      <path
         style="fill:none;stroke:#000000;stroke-width:1"
         d="M 232.4 260.5 L 220.47 260.5 L 220.47 263.6 L 210.28 263.6 L 210.28 260.5 L 198.445 260.5 L 198.445 263.6 L 188.255 263.6 L 188.255 260.5 L 176.42 260.5 L 176.42 263.6 L 166.23 263.6 L 166.23 260.5 L 154.395 260.5 L 154.395 263.6 L 144.205 263.6 L 144.205 260.5 L 132.37 260.5 L 132.37 263.6 L 122.18 263.6 L 122.18 260.5 L 110.345 260.5 L 110.345 263.6 L 100.155 263.6 L 100.155 260.5 L 88.32 260.5 L 88.32 263.6 L 78.13 263.6 L 78.13 260.5 L 66.2 260.5"
         id="path9803" />
      <path
         style="fill:none;stroke:#000000;stroke-width:1"
         d="M 66.2 260.5 L 66.2 251.438 L 69.3 251.438 L 69.3 241.628 L 66.2 241.628 L 66.2 229.372 L 69.3 229.372 L 69.3 219.562 L 66.2 219.562 L 66.2 210.5"
         id="path9805" />
    </g>
    <g
       id="panel2693">
      <path
         style="fill:none;stroke:#000000;stroke-width:1"
         d="M 8.1 69.3 L 16.9717 69.3 L 16.9717 66.2 L 27.1617 66.2 L 27.1617 69.3 L 39.0383 69.3 L 39.0383 66.2 L 49.2283 66.2 L 49.2283 69.3 L 58.1 69.3"
         id="path9808" />
      <path
         style="fill:none;stroke:#000000;stroke-width:1"
         d="M 58.1 69.3 L 58.1 76.9907 L 61.2 76.9907 L 61.2 87.1807 L 58.1 87.1807 L 58.1 97.8764 L 61.2 97.8764 L 61.2 108.066 L 58.1 108.066 L 58.1 118.762 L 61.2 118.762 L 61.2 128.952 L 58.1 128.952 L 58.1 139.648 L 61.2 139.648 L 61.2 149.838 L 58.1 149.838 L 58.1 160.534 L 61.2 160.534 L 61.2 170.724 L 58.1 170.724 L 58.1 181.419 L 61.2 181.419 L 61.2 191.609 L 58.1 191.609 L 58.1 199.3"
         id="path9810" />
      <path
         style="fill:none;stroke:#000000;stroke-width:1"
         d="M 58.1 199.3 L 49.2283 199.3 L 49.2283 202.4 L 39.0383 202.4 L 39.0383 199.3 L 27.1617 199.3 L 27.1617 202.4 L 16.9717 202.4 L 16.9717 199.3 L 8.1 199.3"
         id="path9812" />
      <path
         style="fill:none;stroke:#000000;stroke-width:1"
         d="M 8.1 199.3 L 8.1 191.609 L 5 191.609 L 5 181.419 L 8.1 181.419 L 8.1 170.724 L 5 170.724 L 5 160.534 L 8.1 160.534 L 8.1 149.838 L 5 149.838 L 5 139.648 L 8.1 139.648 L 8.1 128.952 L 5 128.952 L 5 118.762 L 8.1 118.762 L 8.1 108.066 L 5 108.066 L 5 97.8764 L 8.1 97.8764 L 8.1 87.1807 L 5 87.1807 L 5 76.9907 L 8.1 76.9907 L 8.1 69.3"
         id="path9814" />
    </g>
    <g
       id="panel5678"
       transform="translate(-69.169643,-263.82739)"
       style="stroke-width:0.5;stroke-miterlimit:4;stroke-dasharray:none">
      <path
         style="fill:none;stroke:#000000;stroke-width:0.5;stroke-miterlimit:4;stroke-dasharray:none"
         d="m 3.1,332.9 h 8.8717 v -3.1 h 10.19 v 3.1 h 11.8766 v -3.1 h 10.19 v 3.1 H 53.1"
         id="path9817" />
      <path
         style="fill:none;stroke:#000000;stroke-width:0.5;stroke-miterlimit:4;stroke-dasharray:none"
         d="m 53.1,332.9 v 7.691 0 10.19 0 10.695 0 10.19 0 10.696 0 10.19 0 10.696 0 10.19 0 10.696 0 10.19 0 10.695 0 10.19 0 7.691"
         id="path9819" />
      <path
         style="fill:none;stroke:#000000;stroke-width:0.5;stroke-miterlimit:4;stroke-dasharray:none"
         d="m 53.1,462.9 h -8.8717 v 3.1 h -10.19 v -3.1 H 22.1617 v 3.1 h -10.19 v -3.1 H 3.1"
         id="path9821" />
      <path
         style="fill:none;stroke:#000000;stroke-width:1;stroke-miterlimit:4;stroke-dasharray:none"
         d="m 3.1,462.9 25.702381,-7.691 v 0 -10.19 0 -10.695 l 14.93006,4.7247 -14.93006,-14.9147 v 0 -10.696 L 43.921429,417.59574 28.802381,403.248 v 0 -10.696 L 41.275595,384.99248 28.802381,382.362 v 0 -10.696 L 42.976488,370.72106 28.802381,361.476 v 0 l 7.181548,-15.79 v 0 0 L 28.802381,340.591 3.1,332.9"
         id="path9823"
         sodipodi:nodetypes="cccccccccccccccccccccccccc" />
    </g>
    <g
       id="panel6149">
      <path
         style="fill:none;stroke:#000000;stroke-width:1"
         d="M 66.2 66.2 L 78.32 66.2 L 78.32 69.3 L 88.13 69.3 L 88.13 66.2 L 100.345 66.2 L 100.345 69.3 L 110.155 69.3 L 110.155 66.2 L 122.37 66.2 L 122.37 69.3 L 132.18 69.3 L 132.18 66.2 L 144.395 66.2 L 144.395 69.3 L 154.205 69.3 L 154.205 66.2 L 166.42 66.2 L 166.42 69.3 L 176.23 69.3 L 176.23 66.2 L 188.445 66.2 L 188.445 69.3 L 198.255 69.3 L 198.255 66.2 L 210.47 66.2 L 210.47 69.3 L 220.28 69.3 L 220.28 66.2 L 232.4 66.2"
         id="path9826" />
      <path
         style="fill:none;stroke:#000000;stroke-width:1"
         d="M 232.4 66.2 L 232.4 77.1807 L 229.3 77.1807 L 229.3 86.9907 L 232.4 86.9907 L 232.4 98.0664 L 229.3 98.0664 L 229.3 107.876 L 232.4 107.876 L 232.4 118.952 L 229.3 118.952 L 229.3 128.762 L 232.4 128.762 L 232.4 139.838 L 229.3 139.838 L 229.3 149.648 L 232.4 149.648 L 232.4 160.724 L 229.3 160.724 L 229.3 170.534 L 232.4 170.534 L 232.4 181.609 L 229.3 181.609 L 229.3 191.419 L 232.4 191.419 L 232.4 202.4"
         id="path9828" />
      <path
         style="fill:none;stroke:#000000;stroke-width:1"
         d="M 232.4 202.4 L 220.28 202.4 L 220.28 199.3 L 210.47 199.3 L 210.47 202.4 L 198.255 202.4 L 198.255 199.3 L 188.445 199.3 L 188.445 202.4 L 176.23 202.4 L 176.23 199.3 L 166.42 199.3 L 166.42 202.4 L 154.205 202.4 L 154.205 199.3 L 144.395 199.3 L 144.395 202.4 L 132.18 202.4 L 132.18 199.3 L 122.37 199.3 L 122.37 202.4 L 110.155 202.4 L 110.155 199.3 L 100.345 199.3 L 100.345 202.4 L 88.13 202.4 L 88.13 199.3 L 78.32 199.3 L 78.32 202.4 L 66.2 202.4"
         id="path9830" />
      <path
         style="fill:none;stroke:#000000;stroke-width:1"
         d="M 66.2 202.4 L 66.2 191.419 L 69.3 191.419 L 69.3 181.609 L 66.2 181.609 L 66.2 170.534 L 69.3 170.534 L 69.3 160.724 L 66.2 160.724 L 66.2 149.648 L 69.3 149.648 L 69.3 139.838 L 66.2 139.838 L 66.2 128.762 L 69.3 128.762 L 69.3 118.952 L 66.2 118.952 L 66.2 107.876 L 69.3 107.876 L 69.3 98.0664 L 66.2 98.0664 L 66.2 86.9907 L 69.3 86.9907 L 69.3 77.1807 L 66.2 77.1807 L 66.2 66.2"
         id="path9832" />
    </g>
    <g
       id="panel7280">
      <path
         style="fill:none;stroke:#000000;stroke-width:1"
         d="M 240.5 69.3 L 249.372 69.3 L 249.372 66.2 L 259.562 66.2 L 259.562 69.3 L 271.438 69.3 L 271.438 66.2 L 281.628 66.2 L 281.628 69.3 L 290.5 69.3"
         id="path9835" />
      <path
         style="fill:none;stroke:#000000;stroke-width:1"
         d="M 290.5 69.3 L 290.5 76.9907 L 293.6 76.9907 L 293.6 87.1807 L 290.5 87.1807 L 290.5 97.8764 L 293.6 97.8764 L 293.6 108.066 L 290.5 108.066 L 290.5 118.762 L 293.6 118.762 L 293.6 128.952 L 290.5 128.952 L 290.5 139.648 L 293.6 139.648 L 293.6 149.838 L 290.5 149.838 L 290.5 160.534 L 293.6 160.534 L 293.6 170.724 L 290.5 170.724 L 290.5 181.419 L 293.6 181.419 L 293.6 191.609 L 290.5 191.609 L 290.5 199.3"
         id="path9837" />
      <path
         style="fill:none;stroke:#000000;stroke-width:1"
         d="M 290.5 199.3 L 281.628 199.3 L 281.628 202.4 L 271.438 202.4 L 271.438 199.3 L 259.562 199.3 L 259.562 202.4 L 249.372 202.4 L 249.372 199.3 L 240.5 199.3"
         id="path9839" />
      <path
         style="fill:none;stroke:#000000;stroke-width:1"
         d="M 240.5 199.3 L 240.5 191.609 L 237.4 191.609 L 237.4 181.419 L 240.5 181.419 L 240.5 170.724 L 237.4 170.724 L 237.4 160.534 L 240.5 160.534 L 240.5 149.838 L 237.4 149.838 L 237.4 139.648 L 240.5 139.648 L 240.5 128.952 L 237.4 128.952 L 237.4 118.762 L 240.5 118.762 L 240.5 108.066 L 237.4 108.066 L 237.4 97.8764 L 240.5 97.8764 L 240.5 87.1807 L 237.4 87.1807 L 237.4 76.9907 L 240.5 76.9907 L 240.5 69.3"
         id="path9841" />
    </g>
    <g
       id="panel1467">
      <path
         style="fill:none;stroke:#000000;stroke-width:1"
         d="M 298.6 66.2 L 310.72 66.2 L 310.72 69.3 L 320.53 69.3 L 320.53 66.2 L 332.745 66.2 L 332.745 69.3 L 342.555 69.3 L 342.555 66.2 L 354.77 66.2 L 354.77 69.3 L 364.58 69.3 L 364.58 66.2 L 376.795 66.2 L 376.795 69.3 L 386.605 69.3 L 386.605 66.2 L 398.82 66.2 L 398.82 69.3 L 408.63 69.3 L 408.63 66.2 L 420.845 66.2 L 420.845 69.3 L 430.655 69.3 L 430.655 66.2 L 442.87 66.2 L 442.87 69.3 L 452.68 69.3 L 452.68 66.2 L 464.8 66.2"
         id="path9844" />
      <path
         style="fill:none;stroke:#000000;stroke-width:1"
         d="M 464.8 66.2 L 464.8 77.1807 L 461.7 77.1807 L 461.7 86.9907 L 464.8 86.9907 L 464.8 98.0664 L 461.7 98.0664 L 461.7 107.876 L 464.8 107.876 L 464.8 118.952 L 461.7 118.952 L 461.7 128.762 L 464.8 128.762 L 464.8 139.838 L 461.7 139.838 L 461.7 149.648 L 464.8 149.648 L 464.8 160.724 L 461.7 160.724 L 461.7 170.534 L 464.8 170.534 L 464.8 181.609 L 461.7 181.609 L 461.7 191.419 L 464.8 191.419 L 464.8 202.4"
         id="path9846" />
      <path
         style="fill:none;stroke:#000000;stroke-width:1"
         d="m 464.8,202.4 h -12.12 v -3.1 h -9.81 v 3.1 c -3.72423,13.20247 -7.77814,13.87738 -12.215,0 v -3.1 h -9.81 v 3.1 H 408.63 v -3.1 h -9.81 v 3.1 h -12.215 v -3.1 h -9.81 v 3.1 H 364.58 v -3.1 h -9.81 v 3.1 h -12.215 v -3.1 h -9.81 v 3.1 c -0.78226,4.96459 -6.74055,20.47636 -12.215,0 v -3.1 h -9.81 v 3.1 H 298.6"
         id="path9848"
         sodipodi:nodetypes="cccccccccccccccccccccccccccccc" />
      <path
         style="fill:none;stroke:#000000;stroke-width:1"
         d="M 298.6 202.4 L 298.6 191.419 L 301.7 191.419 L 301.7 181.609 L 298.6 181.609 L 298.6 170.534 L 301.7 170.534 L 301.7 160.724 L 298.6 160.724 L 298.6 149.648 L 301.7 149.648 L 301.7 139.838 L 298.6 139.838 L 298.6 128.762 L 301.7 128.762 L 301.7 118.952 L 298.6 118.952 L 298.6 107.876 L 301.7 107.876 L 301.7 98.0664 L 298.6 98.0664 L 298.6 86.9907 L 301.7 86.9907 L 301.7 77.1807 L 298.6 77.1807 L 298.6 66.2"
         id="path9850" />
    </g>
    <g
       id="panel1633">
      <path
         style="fill:none;stroke:#000000;stroke-width:1"
         d="M 66.2 8.1 L 78.13 8.1 L 78.13 5 L 88.32 5 L 88.32 8.1 L 100.155 8.1 L 100.155 5 L 110.345 5 L 110.345 8.1 L 122.18 8.1 L 122.18 5 L 132.37 5 L 132.37 8.1 L 144.205 8.1 L 144.205 5 L 154.395 5 L 154.395 8.1 L 166.23 8.1 L 166.23 5 L 176.42 5 L 176.42 8.1 L 188.255 8.1 L 188.255 5 L 198.445 5 L 198.445 8.1 L 210.28 8.1 L 210.28 5 L 220.47 5 L 220.47 8.1 L 232.4 8.1"
         id="path9853" />
      <path
         style="fill:none;stroke:#000000;stroke-width:1"
         d="M 147.75 17.1617 L 147.75 26.9717 L 150.85 26.9717 L 150.85 17.1617 L 147.75 17.1617"
         id="path9855" />
      <path
         style="fill:none;stroke:#000000;stroke-width:1"
         d="M 147.75 39.2283 L 147.75 49.0383 L 150.85 49.0383 L 150.85 39.2283 L 147.75 39.2283"
         id="path9857" />
      <path
         style="fill:none;stroke:#000000;stroke-width:1"
         d="M 232.4 8.1 L 232.4 17.1617 L 229.3 17.1617 L 229.3 26.9717 L 232.4 26.9717 L 232.4 39.2283 L 229.3 39.2283 L 229.3 49.0383 L 232.4 49.0383 L 232.4 58.1"
         id="path9859" />
      <path
         style="fill:none;stroke:#000000;stroke-width:1"
         d="M 232.4 58.1 L 220.47 58.1 L 220.47 61.2 L 210.28 61.2 L 210.28 58.1 L 198.445 58.1 L 198.445 61.2 L 188.255 61.2 L 188.255 58.1 L 176.42 58.1 L 176.42 61.2 L 166.23 61.2 L 166.23 58.1 L 154.395 58.1 L 154.395 61.2 L 144.205 61.2 L 144.205 58.1 L 132.37 58.1 L 132.37 61.2 L 122.18 61.2 L 122.18 58.1 L 110.345 58.1 L 110.345 61.2 L 100.155 61.2 L 100.155 58.1 L 88.32 58.1 L 88.32 61.2 L 78.13 61.2 L 78.13 58.1 L 66.2 58.1"
         id="path9861" />
      <path
         style="fill:none;stroke:#000000;stroke-width:1"
         d="M 66.2 58.1 L 66.2 49.0383 L 69.3 49.0383 L 69.3 39.2283 L 66.2 39.2283 L 66.2 26.9717 L 69.3 26.9717 L 69.3 17.1617 L 66.2 17.1617 L 66.2 8.1"
         id="path9863" />
    </g>
    <text
       xml:space="preserve"
       id="text11050"
       style="fill:black;fill-opacity:1;line-height:1.25;stroke:none;font-family:sans-serif;font-style:normal;font-weight:normal;font-size:10.58333333px;white-space:pre;shape-inside:url(#rect11052);" />
    <text
       xml:space="preserve"
       id="text11056"
       style="fill:black;fill-opacity:1;line-height:1.25;stroke:none;font-family:sans-serif;font-style:normal;font-weight:normal;font-size:10.58333333px;white-space:pre;shape-inside:url(#rect11058);" />
    <text
       xml:space="preserve"
       style="font-style:normal;font-weight:normal;font-size:14.5949px;line-height:1.25;font-family:sans-serif;fill:#000000;fill-opacity:1;stroke:none;stroke-width:0.364873"
       x="472.20523"
       y="74.550789"
       id="text11064"
       transform="scale(0.65799179,1.5197758)"><tspan
         sodipodi:role="line"
         id="tspan11062"
         x="472.20523"
         y="74.550789"
         style="stroke-width:0.364873"></tspan><tspan
         sodipodi:role="line"
         x="472.20523"
         y="92.794426"
         style="stroke-width:0.364873"
         id="tspan11066">𝓕𝓲𝓷𝓷𝓾𝓻 „𝓻𝓲́𝓴𝓲“ 𝓚𝓲𝓷𝓭𝓪𝓮𝓲𝓼𝓽𝓪 </tspan></text>
  </g>
</svg>
