<?xml version="1.0" encoding="UTF-8" standalone="no"?>
<svg
   xmlns:dc="http://purl.org/dc/elements/1.1/"
   xmlns:cc="http://creativecommons.org/ns#"
   xmlns:rdf="http://www.w3.org/1999/02/22-rdf-syntax-ns#"
   xmlns:svg="http://www.w3.org/2000/svg"
   xmlns="http://www.w3.org/2000/svg"
   xmlns:sodipodi="http://sodipodi.sourceforge.net/DTD/sodipodi-0.dtd"
   xmlns:inkscape="http://www.inkscape.org/namespaces/inkscape"
   width="210mm"
   height="297mm"
   viewBox="0 0 210 297"
   version="1.1"
   id="svg8"
   sodipodi:docname="Simon Says.svg"
   inkscape:version="1.0.1 (3bc2e813f5, 2020-09-07)">
  <defs
     id="defs2" />
  <sodipodi:namedview
     id="base"
     pagecolor="#ffffff"
     bordercolor="#666666"
     borderopacity="1.0"
     inkscape:pageopacity="0.0"
     inkscape:pageshadow="2"
     inkscape:zoom="0.7"
     inkscape:cx="862.51368"
     inkscape:cy="528.32095"
     inkscape:document-units="mm"
     inkscape:current-layer="layer1"
     inkscape:document-rotation="0"
     showgrid="true"
     inkscape:window-width="1920"
     inkscape:window-height="1001"
     inkscape:window-x="-9"
     inkscape:window-y="-9"
     inkscape:window-maximized="1">
    <inkscape:grid
       type="xygrid"
       id="grid140" />
  </sodipodi:namedview>
  <metadata
     id="metadata5">
    <rdf:RDF>
      <cc:Work
         rdf:about="">
        <dc:format>image/svg+xml</dc:format>
        <dc:type
           rdf:resource="http://purl.org/dc/dcmitype/StillImage" />
        <dc:title></dc:title>
      </cc:Work>
    </rdf:RDF>
  </metadata>
  <g
     inkscape:label="Layer 1"
     inkscape:groupmode="layer"
     id="layer1">
    <g
       aria-label="Finnur
"
       id="text115"
       style="font-style:normal;font-weight:normal;font-size:10.5833px;line-height:1.25;font-family:sans-serif;fill:#000000;fill-opacity:1;stroke:none;stroke-width:0.264583">
      <path
         d="m 175.39682,178.16542 h -3.89122 v 2.17041 h 3.34345 v 0.9095 h -3.34345 v 3.70519 h -1.02319 v -7.6946 h 4.91441 z"
         style="stroke-width:0.264583"
         id="path119" />
      <path
         d="m 177.53105,178.21193 h -1.09554 v -1.00769 h 1.09554 z m -0.062,6.73859 h -0.97151 v -5.77224 h 0.97151 z"
         style="stroke-width:0.264583"
         id="path121" />
      <path
         d="m 184.21796,184.95052 h -0.97151 v -3.28661 q 0,-0.39791 -0.0465,-0.74414 -0.0465,-0.3514 -0.17053,-0.54777 -0.12919,-0.21704 -0.37207,-0.32039 -0.24288,-0.10852 -0.63045,-0.10852 -0.39791,0 -0.83199,0.19637 -0.43408,0.19637 -0.83199,0.50126 v 4.3098 h -0.97151 v -5.77224 h 0.97151 v 0.64078 q 0.45475,-0.37723 0.94051,-0.58911 0.48576,-0.21187 0.99735,-0.21187 0.93534,0 1.42627,0.56327 0.49092,0.56327 0.49092,1.62264 z"
         style="stroke-width:0.264583"
         id="path123" />
      <path
         d="m 190.9152,184.95052 h -0.97151 v -3.28661 q 0,-0.39791 -0.0465,-0.74414 -0.0465,-0.3514 -0.17053,-0.54777 -0.12919,-0.21704 -0.37207,-0.32039 -0.24288,-0.10852 -0.63045,-0.10852 -0.39791,0 -0.83199,0.19637 -0.43408,0.19637 -0.83198,0.50126 v 4.3098 h -0.97152 v -5.77224 h 0.97152 v 0.64078 q 0.45475,-0.37723 0.9405,-0.58911 0.48576,-0.21187 0.99736,-0.21187 0.93534,0 1.42626,0.56327 0.49092,0.56327 0.49092,1.62264 z"
         style="stroke-width:0.264583"
         id="path125" />
      <path
         d="m 197.57111,184.95052 h -0.97152 v -0.64079 q -0.49092,0.38757 -0.9405,0.59428 -0.44959,0.2067 -0.99219,0.2067 -0.9095,0 -1.41593,-0.55293 -0.50643,-0.55811 -0.50643,-1.63297 v -3.74653 h 0.97152 v 3.28661 q 0,0.43925 0.0413,0.75447 0.0413,0.31006 0.1757,0.53227 0.13952,0.22737 0.36173,0.33072 0.22221,0.10336 0.64596,0.10336 0.37723,0 0.82165,-0.19637 0.44958,-0.19637 0.83715,-0.50126 v -4.3098 h 0.97152 z"
         style="stroke-width:0.264583"
         id="path127" />
      <path
         d="m 203.08497,180.23764 h -0.0517 q -0.21704,-0.0517 -0.42375,-0.0724 -0.20153,-0.0258 -0.48059,-0.0258 -0.44958,0 -0.86816,0.20153 -0.41857,0.19637 -0.80615,0.5116 v 4.09793 h -0.97151 v -5.77224 h 0.97151 v 0.85266 q 0.57878,-0.46509 1.01803,-0.65629 0.44441,-0.19637 0.90433,-0.19637 0.25321,0 0.3669,0.0155 0.11369,0.0103 0.34107,0.0465 z"
         style="stroke-width:0.264583"
         id="path129" />
    </g>
    <g
       id="panel4981">
      <path
         style="fill:none;stroke:#000000;stroke-width:1"
         d="M 66.4 201 L 78.5979 201 L 78.5979 197.8 L 88.8879 197.8 L 88.8879 201 L 100.941 201 L 100.941 197.8 L 111.231 197.8 L 111.231 201 L 123.284 201 L 123.284 197.8 L 133.574 197.8 L 133.574 201 L 145.626 201 L 145.626 197.8 L 155.916 197.8 L 155.916 201 L 167.969 201 L 167.969 197.8 L 178.259 197.8 L 178.259 201 L 190.312 201 L 190.312 197.8 L 200.602 197.8 L 200.602 201 L 212.8 201"
         id="path13" />
      <path
         style="fill:none;stroke:#000000;stroke-width:1"
         d="M 212.8 201 L 212.8 210.078 L 209.6 210.078 L 209.6 219.788 L 212.8 219.788 L 212.8 232.212 L 209.6 232.212 L 209.6 241.922 L 212.8 241.922 L 212.8 251"
         id="path15" />
      <path
         style="fill:none;stroke:#000000;stroke-width:1"
         d="M 212.8 251 L 200.602 251 L 200.602 254.2 L 190.312 254.2 L 190.312 251 L 178.259 251 L 178.259 254.2 L 167.969 254.2 L 167.969 251 L 155.916 251 L 155.916 254.2 L 145.626 254.2 L 145.626 251 L 133.574 251 L 133.574 254.2 L 123.284 254.2 L 123.284 251 L 111.231 251 L 111.231 254.2 L 100.941 254.2 L 100.941 251 L 88.8879 251 L 88.8879 254.2 L 78.5979 254.2 L 78.5979 251 L 66.4 251"
         id="path17" />
      <path
         style="fill:none;stroke:#000000;stroke-width:1"
         d="M 66.4 251 L 66.4 241.922 L 69.6 241.922 L 69.6 232.212 L 66.4 232.212 L 66.4 219.788 L 69.6 219.788 L 69.6 210.078 L 66.4 210.078 L 66.4 201"
         id="path19" />
    </g>
    <g
       id="panel4842">
      <path
         style="fill:none;stroke:#000000;stroke-width:1"
         d="M 8.2 69.6 L 16.9883 69.6 L 16.9883 66.4 L 27.2783 66.4 L 27.2783 69.6 L 39.1217 69.6 L 39.1217 66.4 L 49.4117 66.4 L 49.4117 69.6 L 58.2 69.6"
         id="path22" />
      <path
         style="fill:none;stroke:#000000;stroke-width:1"
         d="M 58.2 69.6 L 58.2 78.9883 L 61.4 78.9883 L 61.4 89.2783 L 58.2 89.2783 L 58.2 101.722 L 61.4 101.722 L 61.4 112.012 L 58.2 112.012 L 58.2 124.455 L 61.4 124.455 L 61.4 134.745 L 58.2 134.745 L 58.2 147.188 L 61.4 147.188 L 61.4 157.478 L 58.2 157.478 L 58.2 169.922 L 61.4 169.922 L 61.4 180.212 L 58.2 180.212 L 58.2 189.6"
         id="path24" />
      <path
         style="fill:none;stroke:#000000;stroke-width:1"
         d="M 58.2 189.6 L 49.4117 189.6 L 49.4117 192.8 L 39.1217 192.8 L 39.1217 189.6 L 27.2783 189.6 L 27.2783 192.8 L 16.9883 192.8 L 16.9883 189.6 L 8.2 189.6"
         id="path26" />
      <path
         style="fill:none;stroke:#000000;stroke-width:1"
         d="M 8.2 189.6 L 8.2 180.212 L 5 180.212 L 5 169.922 L 8.2 169.922 L 8.2 157.478 L 5 157.478 L 5 147.188 L 8.2 147.188 L 8.2 134.745 L 5 134.745 L 5 124.455 L 8.2 124.455 L 8.2 112.012 L 5 112.012 L 5 101.722 L 8.2 101.722 L 8.2 89.2783 L 5 89.2783 L 5 78.9883 L 8.2 78.9883 L 8.2 69.6"
         id="path28" />
    </g>
    <g
       id="panel2678">
      <path
         style="fill:none;stroke:#000000;stroke-width:1"
         d="M 66.4 66.4 L 78.8879 66.4 L 78.8879 69.6 L 88.5979 69.6 L 88.5979 66.4 L 101.231 66.4 L 101.231 69.6 L 110.941 69.6 L 110.941 66.4 L 123.574 66.4 L 123.574 69.6 L 133.284 69.6 L 133.284 66.4 L 145.916 66.4 L 145.916 69.6 L 155.626 69.6 L 155.626 66.4 L 168.259 66.4 L 168.259 69.6 L 177.969 69.6 L 177.969 66.4 L 190.602 66.4 L 190.602 69.6 L 200.312 69.6 L 200.312 66.4 L 212.8 66.4"
         id="path40" />
      <path
         style="fill:none;stroke:#000000;stroke-width:1"
         d="M 212.8 66.4 L 212.8 79.2783 L 209.6 79.2783 L 209.6 88.9883 L 212.8 88.9883 L 212.8 102.012 L 209.6 102.012 L 209.6 111.722 L 212.8 111.722 L 212.8 124.745 L 209.6 124.745 L 209.6 134.455 L 212.8 134.455 L 212.8 147.478 L 209.6 147.478 L 209.6 157.188 L 212.8 157.188 L 212.8 170.212 L 209.6 170.212 L 209.6 179.922 L 212.8 179.922 L 212.8 192.8"
         id="path42" />
      <path
         style="fill:none;stroke:#000000;stroke-width:1"
         d="M 212.8 192.8 L 200.312 192.8 L 200.312 189.6 L 190.602 189.6 L 190.602 192.8 L 177.969 192.8 L 177.969 189.6 L 168.259 189.6 L 168.259 192.8 L 155.626 192.8 L 155.626 189.6 L 145.916 189.6 L 145.916 192.8 L 133.284 192.8 L 133.284 189.6 L 123.574 189.6 L 123.574 192.8 L 110.941 192.8 L 110.941 189.6 L 101.231 189.6 L 101.231 192.8 L 88.5979 192.8 L 88.5979 189.6 L 78.8879 189.6 L 78.8879 192.8 L 66.4 192.8"
         id="path44" />
      <path
         style="fill:none;stroke:#000000;stroke-width:1"
         d="M 66.4 192.8 L 66.4 179.922 L 69.6 179.922 L 69.6 170.212 L 66.4 170.212 L 66.4 157.188 L 69.6 157.188 L 69.6 147.478 L 66.4 147.478 L 66.4 134.455 L 69.6 134.455 L 69.6 124.745 L 66.4 124.745 L 66.4 111.722 L 69.6 111.722 L 69.6 102.012 L 66.4 102.012 L 66.4 88.9883 L 69.6 88.9883 L 69.6 79.2783 L 66.4 79.2783 L 66.4 66.4"
         id="path46" />
    </g>
    <g
       id="panel7748">
      <path
         style="fill:none;stroke:#000000;stroke-width:1"
         d="M 221 69.6 L 229.788 69.6 L 229.788 66.4 L 240.078 66.4 L 240.078 69.6 L 251.922 69.6 L 251.922 66.4 L 262.212 66.4 L 262.212 69.6 L 271 69.6"
         id="path49" />
      <path
         style="fill:none;stroke:#000000;stroke-width:1"
         d="M 271 69.6 L 271 78.9883 L 274.2 78.9883 L 274.2 89.2783 L 271 89.2783 L 271 101.722 L 274.2 101.722 L 274.2 112.012 L 271 112.012 L 271 124.455 L 274.2 124.455 L 274.2 134.745 L 271 134.745 L 271 147.188 L 274.2 147.188 L 274.2 157.478 L 271 157.478 L 271 169.922 L 274.2 169.922 L 274.2 180.212 L 271 180.212 L 271 189.6"
         id="path51" />
      <path
         style="fill:none;stroke:#000000;stroke-width:1"
         d="M 271 189.6 L 262.212 189.6 L 262.212 192.8 L 251.922 192.8 L 251.922 189.6 L 240.078 189.6 L 240.078 192.8 L 229.788 192.8 L 229.788 189.6 L 221 189.6"
         id="path53" />
      <path
         style="fill:none;stroke:#000000;stroke-width:1"
         d="M 221 189.6 L 221 180.212 L 217.8 180.212 L 217.8 169.922 L 221 169.922 L 221 157.478 L 217.8 157.478 L 217.8 147.188 L 221 147.188 L 221 134.745 L 217.8 134.745 L 217.8 124.455 L 221 124.455 L 221 112.012 L 217.8 112.012 L 217.8 101.722 L 221 101.722 L 221 89.2783 L 217.8 89.2783 L 217.8 78.9883 L 221 78.9883 L 221 69.6"
         id="path55" />
    </g>
    <g
       id="panel217">
      <path
         style="fill:none;stroke:#000000;stroke-width:1"
         d="M 279.2 66.4 L 291.688 66.4 L 291.688 69.6 L 301.398 69.6 L 301.398 66.4 L 314.031 66.4 L 314.031 69.6 L 323.741 69.6 L 323.741 66.4 L 336.374 66.4 L 336.374 69.6 L 346.084 69.6 L 346.084 66.4 L 358.716 66.4 L 358.716 69.6 L 368.426 69.6 L 368.426 66.4 L 381.059 66.4 L 381.059 69.6 L 390.769 69.6 L 390.769 66.4 L 403.402 66.4 L 403.402 69.6 L 413.112 69.6 L 413.112 66.4 L 425.6 66.4"
         id="path58" />
      <path
         style="fill:none;stroke:#000000;stroke-width:1"
         d="M 425.6 66.4 L 425.6 79.2783 L 422.4 79.2783 L 422.4 88.9883 L 425.6 88.9883 L 425.6 102.012 L 422.4 102.012 L 422.4 111.722 L 425.6 111.722 L 425.6 124.745 L 422.4 124.745 L 422.4 134.455 L 425.6 134.455 L 425.6 147.478 L 422.4 147.478 L 422.4 157.188 L 425.6 157.188 L 425.6 170.212 L 422.4 170.212 L 422.4 179.922 L 425.6 179.922 L 425.6 192.8"
         id="path60" />
      <path
         style="fill:none;stroke:#000000;stroke-width:1"
         d="M 425.6 192.8 L 413.112 192.8 L 413.112 189.6 L 403.402 189.6 L 403.402 192.8 L 390.769 192.8 L 390.769 189.6 L 381.059 189.6 L 381.059 192.8 L 368.426 192.8 L 368.426 189.6 L 358.716 189.6 L 358.716 192.8 L 346.084 192.8 L 346.084 189.6 L 336.374 189.6 L 336.374 192.8 L 323.741 192.8 L 323.741 189.6 L 314.031 189.6 L 314.031 192.8 L 301.398 192.8 L 301.398 189.6 L 291.688 189.6 L 291.688 192.8 L 279.2 192.8"
         id="path62" />
      <path
         style="fill:none;stroke:#000000;stroke-width:1"
         d="M 279.2 192.8 L 279.2 179.922 L 282.4 179.922 L 282.4 170.212 L 279.2 170.212 L 279.2 157.188 L 282.4 157.188 L 282.4 147.478 L 279.2 147.478 L 279.2 134.455 L 282.4 134.455 L 282.4 124.745 L 279.2 124.745 L 279.2 111.722 L 282.4 111.722 L 282.4 102.012 L 279.2 102.012 L 279.2 88.9883 L 282.4 88.9883 L 282.4 79.2783 L 279.2 79.2783 L 279.2 66.4"
         id="path64" />
    </g>
    <g
       id="panel5283">
      <path
         style="fill:none;stroke:#000000;stroke-width:1"
         d="M 66.4 8.2 L 78.5979 8.2 L 78.5979 5 L 88.8879 5 L 88.8879 8.2 L 100.941 8.2 L 100.941 5 L 111.231 5 L 111.231 8.2 L 123.284 8.2 L 123.284 5 L 133.574 5 L 133.574 8.2 L 145.626 8.2 L 145.626 5 L 155.916 5 L 155.916 8.2 L 167.969 8.2 L 167.969 5 L 178.259 5 L 178.259 8.2 L 190.312 8.2 L 190.312 5 L 200.602 5 L 200.602 8.2 L 212.8 8.2"
         id="path67" />
      <path
         style="fill:none;stroke:#000000;stroke-width:1"
         d="M 212.8 8.2 L 212.8 17.2783 L 209.6 17.2783 L 209.6 26.9883 L 212.8 26.9883 L 212.8 39.4117 L 209.6 39.4117 L 209.6 49.1217 L 212.8 49.1217 L 212.8 58.2"
         id="path69" />
      <path
         style="fill:none;stroke:#000000;stroke-width:1"
         d="M 212.8 58.2 L 200.602 58.2 L 200.602 61.4 L 190.312 61.4 L 190.312 58.2 L 178.259 58.2 L 178.259 61.4 L 167.969 61.4 L 167.969 58.2 L 155.916 58.2 L 155.916 61.4 L 145.626 61.4 L 145.626 58.2 L 133.574 58.2 L 133.574 61.4 L 123.284 61.4 L 123.284 58.2 L 111.231 58.2 L 111.231 61.4 L 100.941 61.4 L 100.941 58.2 L 88.8879 58.2 L 88.8879 61.4 L 78.5979 61.4 L 78.5979 58.2 L 66.4 58.2"
         id="path71" />
      <path
         style="fill:none;stroke:#000000;stroke-width:1"
         d="M 66.4 58.2 L 66.4 49.1217 L 69.6 49.1217 L 69.6 39.4117 L 66.4 39.4117 L 66.4 26.9883 L 69.6 26.9883 L 69.6 17.2783 L 66.4 17.2783 L 66.4 8.2"
         id="path73" />
    </g>
    <g
       id="g154">
      <g
         id="g186">
        <rect
           style="fill:none;stroke:#000000;stroke-width:0.250407"
           id="rect180"
           width="10.749595"
           height="8.7495928"
           x="229.12202"
           y="80.790207"
           ry="0"
           rx="0" />
        <rect
           style="fill:none;stroke:#000000;stroke-width:0.289176"
           id="rect182"
           width="10.710824"
           height="11.710824"
           x="229.1414"
           y="110.80959"
           ry="0"
           rx="0" />
      </g>
      <g
         id="g158"
         transform="matrix(0.50001462,0,0,0.50001462,144.82768,31.360728)">
        <circle
           style="fill:none;stroke:#000000;stroke-width:0.264583"
           id="circle138"
           cx="320.72342"
           cy="147.21176"
           r="7" />
        <circle
           style="fill:none;stroke:#000000;stroke-width:0.264583"
           id="circle148"
           cx="321.31082"
           cy="125.13229"
           r="5" />
      </g>
      <g
         id="g164"
         transform="matrix(0.50001462,0,0,0.50001462,174.07906,31.360732)">
        <circle
           style="fill:none;stroke:#000000;stroke-width:0.264583"
           id="circle160"
           cx="320.72342"
           cy="147.21176"
           r="7" />
        <circle
           style="fill:none;stroke:#000000;stroke-width:0.264583"
           id="circle162"
           cx="321.31082"
           cy="125.13229"
           r="5" />
      </g>
      <g
         id="g170"
         transform="matrix(0.50001462,0,0,0.50001462,204.07906,31.360732)">
        <circle
           style="fill:none;stroke:#000000;stroke-width:0.264583"
           id="circle166"
           cx="320.72342"
           cy="147.21176"
           r="7" />
        <circle
           style="fill:none;stroke:#000000;stroke-width:0.264583"
           id="circle168"
           cx="321.31082"
           cy="125.13229"
           r="5" />
      </g>
      <g
         id="g176"
         transform="matrix(0.50001462,0,0,0.50001462,234.07906,31.360732)">
        <circle
           style="fill:none;stroke:#000000;stroke-width:0.264583"
           id="circle172"
           cx="320.72342"
           cy="147.21176"
           r="7" />
        <circle
           style="fill:none;stroke:#000000;stroke-width:0.264583"
           id="circle174"
           cx="321.31082"
           cy="125.13229"
           r="5" />
      </g>
      <ellipse
         style="fill:none;stroke:#000000;stroke-width:0.131423"
         id="path188"
         cx="238.97272"
         cy="154.57042"
         rx="9.934289"
         ry="9.934288" />
    </g>
  </g>
</svg>
